<svg id="my-svg" width="100%" xmlns="http://www.w3.org/2000/svg" xmlns:xlink="http://www.w3.org/1999/xlink" class="flowchart" style="max-width: 496.512px; background-color: transparent;" viewBox="0 0 496.51171875 1332.890625" role="graphics-document document" aria-roledescription="flowchart-v2"><style>#my-svg{font-size:22px;fill:#1a1a1c;}@keyframes edge-animation-frame{from{stroke-dashoffset:0;}}@keyframes dash{to{stroke-dashoffset:0;}}#my-svg .edge-animation-slow{stroke-dasharray:9,5!important;stroke-dashoffset:900;animation:dash 50s linear infinite;stroke-linecap:round;}#my-svg .edge-animation-fast{stroke-dasharray:9,5!important;stroke-dashoffset:900;animation:dash 20s linear infinite;stroke-linecap:round;}#my-svg .error-icon{fill:hsl(180, 0%, 100%);}#my-svg .error-text{fill:rgb(0, 0, 0);stroke:rgb(0, 0, 0);}#my-svg .edge-thickness-normal{stroke-width:1px;}#my-svg .edge-thickness-thick{stroke-width:3.5px;}#my-svg .edge-pattern-solid{stroke-dasharray:0;}#my-svg .edge-thickness-invisible{stroke-width:0;fill:none;}#my-svg .edge-pattern-dashed{stroke-dasharray:3;}#my-svg .edge-pattern-dotted{stroke-dasharray:2;}#my-svg .marker{fill:#4f4f52;stroke:#4f4f52;}#my-svg .marker.cross{stroke:#4f4f52;}#my-svg svg{font-size:22px;}#my-svg p{margin:0;}#my-svg .label{color:#1a1a1c;}#my-svg .cluster-label text{fill:rgb(0, 0, 0);}#my-svg .cluster-label span{color:rgb(0, 0, 0);}#my-svg .cluster-label span p{background-color:transparent;}#my-svg .label text,#my-svg span{fill:#1a1a1c;color:#1a1a1c;}#my-svg .node rect,#my-svg .node circle,#my-svg .node ellipse,#my-svg .node polygon,#my-svg .node path{fill:#ffffff;stroke:#1a1a1c;stroke-width:1px;}#my-svg .rough-node .label text,#my-svg .node .label text,#my-svg .image-shape .label,#my-svg .icon-shape .label{text-anchor:middle;}#my-svg .node .katex path{fill:#000;stroke:#000;stroke-width:1px;}#my-svg .rough-node .label,#my-svg .node .label,#my-svg .image-shape .label,#my-svg .icon-shape .label{text-align:center;}#my-svg .node.clickable{cursor:pointer;}#my-svg .root .anchor path{fill:#4f4f52!important;stroke-width:0;stroke:#4f4f52;}#my-svg .arrowheadPath{fill:#0b0b0b;}#my-svg .edgePath .path{stroke:#4f4f52;stroke-width:1px;}#my-svg .flowchart-link{stroke:#4f4f52;fill:none;}#my-svg .edgeLabel{background-color:hsl(-120, 0%, 100%);text-align:center;}#my-svg .edgeLabel p{background-color:hsl(-120, 0%, 100%);}#my-svg .edgeLabel rect{opacity:0.5;background-color:hsl(-120, 0%, 100%);fill:hsl(-120, 0%, 100%);}#my-svg .labelBkg{background-color:rgba(255, 255, 255, 0.5);}#my-svg .cluster rect{fill:hsl(180, 0%, 100%);stroke:hsl(180, 0%, 90%);stroke-width:1px;}#my-svg .cluster text{fill:rgb(0, 0, 0);}#my-svg .cluster span{color:rgb(0, 0, 0);}#my-svg div.mermaidTooltip{position:absolute;text-align:center;max-width:200px;padding:2px;font-size:12px;background:hsl(180, 0%, 100%);border:1px solid hsl(180, 0%, 90%);border-radius:2px;pointer-events:none;z-index:100;}#my-svg .flowchartTitleText{text-anchor:middle;font-size:18px;fill:#1a1a1c;}#my-svg rect.text{fill:none;stroke-width:0;}#my-svg .icon-shape,#my-svg .image-shape{background-color:hsl(-120, 0%, 100%);text-align:center;}#my-svg .icon-shape p,#my-svg .image-shape p{background-color:hsl(-120, 0%, 100%);padding:2px;}#my-svg .icon-shape .label rect,#my-svg .image-shape .label rect{opacity:0.5;background-color:hsl(-120, 0%, 100%);fill:hsl(-120, 0%, 100%);}#my-svg .label-icon{display:inline-block;height:1em;overflow:visible;vertical-align:-0.125em;}#my-svg .node .label-icon path{fill:currentColor;stroke:revert;stroke-width:revert;}#my-svg .node .neo-node{stroke:#1a1a1c;}#my-svg [data-look="neo"].node rect,#my-svg [data-look="neo"].cluster rect,#my-svg [data-look="neo"].node polygon{stroke:url(#my-svg-gradient);filter:drop-shadow( 1px 2px 2px rgba(185,185,185,1));}#my-svg [data-look="neo"].node path{stroke:url(#my-svg-gradient);stroke-width:1px;}#my-svg [data-look="neo"].node .outer-path{filter:drop-shadow( 1px 2px 2px rgba(185,185,185,1));}#my-svg [data-look="neo"].node .neo-line path{stroke:#1a1a1c;filter:none;}#my-svg [data-look="neo"].node circle{stroke:url(#my-svg-gradient);filter:drop-shadow( 1px 2px 2px rgba(185,185,185,1));}#my-svg [data-look="neo"].node circle .state-start{fill:#000000;}#my-svg [data-look="neo"].icon-shape .icon{fill:url(#my-svg-gradient);filter:drop-shadow( 1px 2px 2px rgba(185,185,185,1));}#my-svg [data-look="neo"].icon-shape .icon-neo path{stroke:url(#my-svg-gradient);filter:drop-shadow( 1px 2px 2px rgba(185,185,185,1));}#my-svg :root{--mermaid-font-family:"trebuchet ms",verdana,arial,sans-serif;}#my-svg .start&gt;*{fill:#FFF8F2!important;stroke:#1a1a1c!important;color:#1a1a1c!important;stroke-width:2px!important;}#my-svg .start span{fill:#FFF8F2!important;stroke:#1a1a1c!important;color:#1a1a1c!important;stroke-width:2px!important;}#my-svg .start tspan{fill:#1a1a1c!important;}#my-svg .gate&gt;*{fill:#ffffff!important;stroke:#1a1a1c!important;color:#1a1a1c!important;stroke-width:2px!important;}#my-svg .gate span{fill:#ffffff!important;stroke:#1a1a1c!important;color:#1a1a1c!important;stroke-width:2px!important;}#my-svg .gate tspan{fill:#1a1a1c!important;}#my-svg .mode&gt;*{fill:#FFE7DD!important;stroke:#EA4700!important;color:#5a1500!important;stroke-width:2px!important;}#my-svg .mode span{fill:#FFE7DD!important;stroke:#EA4700!important;color:#5a1500!important;stroke-width:2px!important;}#my-svg .mode tspan{fill:#5a1500!important;}#my-svg .prod&gt;*{fill:#EA4700!important;stroke:#C73D00!important;color:#ffffff!important;stroke-width:2.5px!important;}#my-svg .prod span{fill:#EA4700!important;stroke:#C73D00!important;color:#ffffff!important;stroke-width:2.5px!important;}#my-svg .prod tspan{fill:#ffffff!important;}#my-svg .deny&gt;*{fill:#1a1a1c!important;stroke:#1a1a1c!important;color:#ffffff!important;stroke-width:2px!important;}#my-svg .deny span{fill:#1a1a1c!important;stroke:#1a1a1c!important;color:#ffffff!important;stroke-width:2px!important;}#my-svg .deny tspan{fill:#ffffff!important;}</style><g><marker id="my-svg_flowchart-v2-pointEnd" class="marker flowchart-v2" viewBox="0 0 10 10" refX="5" refY="5" markerUnits="userSpaceOnUse" markerWidth="8" markerHeight="8" orient="auto"><path d="M 0 0 L 10 5 L 0 10 z" class="arrowMarkerPath" style="stroke-width: 1; stroke-dasharray: 1, 0;"/></marker><marker id="my-svg_flowchart-v2-pointStart" class="marker flowchart-v2" viewBox="0 0 10 10" refX="4.5" refY="5" markerUnits="userSpaceOnUse" markerWidth="8" markerHeight="8" orient="auto"><path d="M 0 5 L 10 10 L 10 0 z" class="arrowMarkerPath" style="stroke-width: 1; stroke-dasharray: 1, 0;"/></marker><marker id="my-svg_flowchart-v2-pointEnd-margin" class="marker flowchart-v2" viewBox="0 0 11.5 14" refX="11.5" refY="7" markerUnits="userSpaceOnUse" markerWidth="10.5" markerHeight="14" orient="auto"><path d="M 0 0 L 11.5 7 L 0 14 z" class="arrowMarkerPath" style="stroke-width: 0; stroke-dasharray: 1, 0;"/></marker><marker id="my-svg_flowchart-v2-pointStart-margin" class="marker flowchart-v2" viewBox="0 0 11.5 14" refX="1" refY="7" markerUnits="userSpaceOnUse" markerWidth="11.5" markerHeight="14" orient="auto"><polygon points="0,7 11.5,14 11.5,0" class="arrowMarkerPath" style="stroke-width: 0; stroke-dasharray: 1, 0;"/></marker><marker id="my-svg_flowchart-v2-circleEnd" class="marker flowchart-v2" viewBox="0 0 10 10" refX="11" refY="5" markerUnits="userSpaceOnUse" markerWidth="11" markerHeight="11" orient="auto"><circle cx="5" cy="5" r="5" class="arrowMarkerPath" style="stroke-width: 1; stroke-dasharray: 1, 0;"/></marker><marker id="my-svg_flowchart-v2-circleStart" class="marker flowchart-v2" viewBox="0 0 10 10" refX="-1" refY="5" markerUnits="userSpaceOnUse" markerWidth="11" markerHeight="11" orient="auto"><circle cx="5" cy="5" r="5" class="arrowMarkerPath" style="stroke-width: 1; stroke-dasharray: 1, 0;"/></marker><marker id="my-svg_flowchart-v2-circleEnd-margin" class="marker flowchart-v2" viewBox="0 0 10 10" refY="5" refX="12.25" markerUnits="userSpaceOnUse" markerWidth="14" markerHeight="14" orient="auto"><circle cx="5" cy="5" r="5" class="arrowMarkerPath" style="stroke-width: 0; stroke-dasharray: 1, 0;"/></marker><marker id="my-svg_flowchart-v2-circleStart-margin" class="marker flowchart-v2" viewBox="0 0 10 10" refX="-2" refY="5" markerUnits="userSpaceOnUse" markerWidth="14" markerHeight="14" orient="auto"><circle cx="5" cy="5" r="5" class="arrowMarkerPath" style="stroke-width: 0; stroke-dasharray: 1, 0;"/></marker><marker id="my-svg_flowchart-v2-crossEnd" class="marker cross flowchart-v2" viewBox="0 0 11 11" refX="12" refY="5.2" markerUnits="userSpaceOnUse" markerWidth="11" markerHeight="11" orient="auto"><path d="M 1,1 l 9,9 M 10,1 l -9,9" class="arrowMarkerPath" style="stroke-width: 2; stroke-dasharray: 1, 0;"/></marker><marker id="my-svg_flowchart-v2-crossStart" class="marker cross flowchart-v2" viewBox="0 0 11 11" refX="-1" refY="5.2" markerUnits="userSpaceOnUse" markerWidth="11" markerHeight="11" orient="auto"><path d="M 1,1 l 9,9 M 10,1 l -9,9" class="arrowMarkerPath" style="stroke-width: 2; stroke-dasharray: 1, 0;"/></marker><marker id="my-svg_flowchart-v2-crossEnd-margin" class="marker cross flowchart-v2" viewBox="0 0 15 15" refX="17.7" refY="7.5" markerUnits="userSpaceOnUse" markerWidth="12" markerHeight="12" orient="auto"><path d="M 1,1 L 14,14 M 1,14 L 14,1" class="arrowMarkerPath" style="stroke-width: 2.5;"/></marker><marker id="my-svg_flowchart-v2-crossStart-margin" class="marker cross flowchart-v2" viewBox="0 0 15 15" refX="-3.5" refY="7.5" markerUnits="userSpaceOnUse" markerWidth="12" markerHeight="12" orient="auto"><path d="M 1,1 L 14,14 M 1,14 L 14,1" class="arrowMarkerPath" style="stroke-width: 2.5; stroke-dasharray: 1, 0;"/></marker><g class="root"><g class="clusters"/><g class="edgePaths"><path d="M137.051,92.5L136.551,127L136.551,158" id="my-svg-L_Start_CheckCeiling_0" class="edge-thickness-normal edge-pattern-solid edge-thickness-normal edge-pattern-solid flowchart-link" style=";" data-edge="true" data-et="edge" data-id="L_Start_CheckCeiling_0" data-points="W3sieCI6MTM3LjA1MDc4MTI1LCJ5Ijo5Mi41fSx7IngiOjEzNi41NTA3ODEyNSwieSI6MTI3fSx7IngiOjEzNi41NTA3ODEyNSwieSI6MTYyfV0=" data-look="classic" marker-end="url(#my-svg_flowchart-v2-pointEnd)"/><path d="M113.797,315.856L88.023,390.109L88.023,471.25" id="my-svg-L_CheckCeiling_Deny_0" class="edge-thickness-normal edge-pattern-solid edge-thickness-normal edge-pattern-solid flowchart-link" style=";" data-edge="true" data-et="edge" data-id="L_CheckCeiling_Deny_0" data-points="W3sieCI6MTEzLjc5NzM5MjQ3OTA3NzIyLCJ5IjozMTUuODU1OTg2MjI5MDc3MjV9LHsieCI6ODguMDIzNDM3NSwieSI6MzkwLjEwOTM3NX0seyJ4Ijo4OC4wMjM0Mzc1LCJ5Ijo0NzUuMjV9XQ==" data-look="classic" marker-end="url(#my-svg_flowchart-v2-pointEnd)"/><path d="M185.78,289.38L312.688,390.109L312.688,437.609" id="my-svg-L_CheckCeiling_CheckMode_0" class="edge-thickness-normal edge-pattern-solid edge-thickness-normal edge-pattern-solid flowchart-link" style=";" data-edge="true" data-et="edge" data-id="L_CheckCeiling_CheckMode_0" data-points="W3sieCI6MTg1Ljc4MDQ3MjU3NTA2Mzk4LCJ5IjoyODkuMzc5NjgzNjc0OTM2fSx7IngiOjMxMi42ODc1LCJ5IjozOTAuMTA5Mzc1fSx7IngiOjMxMi42ODc1LCJ5Ijo0NDEuNjA5Mzc1fV0=" data-look="classic" marker-end="url(#my-svg_flowchart-v2-pointEnd)"/><path d="M345.869,577.709L400.473,662.391L400.473,709.891" id="my-svg-L_CheckMode_Shadow_0" class="edge-thickness-normal edge-pattern-solid edge-thickness-normal edge-pattern-solid flowchart-link" style=";" data-edge="true" data-et="edge" data-id="L_CheckMode_Shadow_0" data-points="W3sieCI6MzQ1Ljg2ODk4NzQwNzMyNjY0LCJ5Ijo1NzcuNzA5MTM3NTkyNjczM30seyJ4Ijo0MDAuNDcyNjU2MjUsInkiOjY2Mi4zOTA2MjV9LHsieCI6NDAwLjQ3MjY1NjI1LCJ5Ijo3MTMuODkwNjI1fV0=" data-look="classic" marker-end="url(#my-svg_flowchart-v2-pointEnd)"/><path d="M285.678,583.881L248.883,662.391L248.883,781.391L248.883,900.391L280.738,948.554" id="my-svg-L_CheckMode_Trial_0" class="edge-thickness-normal edge-pattern-solid edge-thickness-normal edge-pattern-solid flowchart-link" style=";" data-edge="true" data-et="edge" data-id="L_CheckMode_Trial_0" data-points="W3sieCI6Mjg1LjY3Nzc3MTM4NzY4NDEsInkiOjU4My44ODA4OTYzODc2ODQyfSx7IngiOjI0OC44ODI4MTI1LCJ5Ijo2NjIuMzkwNjI1fSx7IngiOjI0OC44ODI4MTI1LCJ5Ijo3ODEuMzkwNjI1fSx7IngiOjI0OC44ODI4MTI1LCJ5Ijo5MDAuMzkwNjI1fSx7IngiOjI4Mi45NDUwOTkxMzM0MDMzNSwieSI6OTUxLjg5MDYyNX1d" data-look="classic" marker-end="url(#my-svg_flowchart-v2-pointEnd)"/><path d="M266.051,564.254L145.625,662.391L145.625,781.391L145.625,900.391L145.625,1019.391L145.625,1138.391L192.36,1187.007" id="my-svg-L_CheckMode_Prod_0" class="edge-thickness-normal edge-pattern-solid edge-thickness-normal edge-pattern-solid flowchart-link" style=";" data-edge="true" data-et="edge" data-id="L_CheckMode_Prod_0" data-points="W3sieCI6MjY2LjA1MTE5MTcwMzE2OTMsInkiOjU2NC4yNTQzMTY3MDMxNjkzfSx7IngiOjE0NS42MjUsInkiOjY2Mi4zOTA2MjV9LHsieCI6MTQ1LjYyNSwieSI6NzgxLjM5MDYyNX0seyJ4IjoxNDUuNjI1LCJ5Ijo5MDAuMzkwNjI1fSx7IngiOjE0NS42MjUsInkiOjEwMTkuMzkwNjI1fSx7IngiOjE0NS42MjUsInkiOjExMzguMzkwNjI1fSx7IngiOjE5NS4xMzE4NzY5Njk1Mzc4LCJ5IjoxMTg5Ljg5MDYyNX1d" data-look="classic" marker-end="url(#my-svg_flowchart-v2-pointEnd)"/><path d="M372.947,848.891L351.945,900.391L342.207,947.972" id="my-svg-L_Shadow_Trial_0" class="edge-thickness-normal edge-pattern-dotted edge-thickness-normal edge-pattern-solid flowchart-link" style=";" data-edge="true" data-et="edge" data-id="L_Shadow_Trial_0" data-points="W3sieCI6MzcyLjk0NjY0MTkzODAyNTIsInkiOjg0OC44OTA2MjV9LHsieCI6MzUxLjk0NTMxMjUsInkiOjkwMC4zOTA2MjV9LHsieCI6MzQxLjQwNDkyMDU2MTk3NDgsInkiOjk1MS44OTA2MjV9XQ==" data-look="classic" marker-end="url(#my-svg_flowchart-v2-pointEnd)"/><path d="M279.821,1086.891L243.375,1138.391L250.024,1185.929" id="my-svg-L_Trial_Prod_0" class="edge-thickness-normal edge-pattern-dotted edge-thickness-normal edge-pattern-solid flowchart-link" style=";" data-edge="true" data-et="edge" data-id="L_Trial_Prod_0" data-points="W3sieCI6Mjc5LjgyMDkxOTc3NDE1OTcsInkiOjEwODYuODkwNjI1fSx7IngiOjI0My4zNzUsInkiOjExMzguMzkwNjI1fSx7IngiOjI1MC41NzgzMDU1NDA5NjY0LCJ5IjoxMTg5Ljg5MDYyNX1d" data-look="classic" marker-end="url(#my-svg_flowchart-v2-pointEnd)"/><path d="M325.873,1189.891L376.117,1138.391L356.626,1090.594" id="my-svg-L_Prod_Trial_0" class="edge-thickness-normal edge-pattern-dotted edge-thickness-normal edge-pattern-solid flowchart-link" style=";" data-edge="true" data-et="edge" data-id="L_Prod_Trial_0" data-points="W3sieCI6MzI1Ljg3MzI0MzgyODc4MTUsInkiOjExODkuODkwNjI1fSx7IngiOjM3Ni4xMTcxODc1LCJ5IjoxMTM4LjM5MDYyNX0seyJ4IjozNTUuMTE1ODU4MDYxOTc0OCwieSI6MTA4Ni44OTA2MjV9XQ==" data-look="classic" marker-end="url(#my-svg_flowchart-v2-pointEnd)"/><path d="M396.457,951.891L449,900.391L429.509,852.594" id="my-svg-L_Trial_Shadow_0" class="edge-thickness-normal edge-pattern-dotted edge-thickness-normal edge-pattern-solid flowchart-link" style=";" data-edge="true" data-et="edge" data-id="L_Trial_Shadow_0" data-points="W3sieCI6Mzk2LjQ1Njk0OTE4NTkyNDQsInkiOjk1MS44OTA2MjV9LHsieCI6NDQ5LCJ5Ijo5MDAuMzkwNjI1fSx7IngiOjQyNy45OTg2NzA1NjE5NzQ4LCJ5Ijo4NDguODkwNjI1fV0=" data-look="classic" marker-end="url(#my-svg_flowchart-v2-pointEnd)"/></g><g class="edgeLabels"><g class="edgeLabel"><g class="label" data-id="L_Start_CheckCeiling_0" transform="translate(0, 0)"><foreignObject width="0" height="0"><div xmlns="http://www.w3.org/1999/xhtml" class="labelBkg" style="display: table-cell; white-space: nowrap; line-height: 1.5; max-width: 200px; text-align: center;"><span class="edgeLabel"></span></div></foreignObject></g></g><g class="edgeLabel" transform="translate(88.0234375, 390.109375)"><g class="label" data-id="L_CheckCeiling_Deny_0" transform="translate(-12.2421875, -16.5)"><foreignObject width="24.484375" height="33"><div xmlns="http://www.w3.org/1999/xhtml" class="labelBkg" style="display: table-cell; white-space: nowrap; line-height: 1.5; max-width: 200px; text-align: center;"><span class="edgeLabel"><p>no</p></span></div></foreignObject></g></g><g class="edgeLabel" transform="translate(312.6875, 390.109375)"><g class="label" data-id="L_CheckCeiling_CheckMode_0" transform="translate(-17.125, -16.5)"><foreignObject width="34.25" height="33"><div xmlns="http://www.w3.org/1999/xhtml" class="labelBkg" style="display: table-cell; white-space: nowrap; line-height: 1.5; max-width: 200px; text-align: center;"><span class="edgeLabel"><p>yes</p></span></div></foreignObject></g></g><g class="edgeLabel" transform="translate(400.47265625, 662.390625)"><g class="label" data-id="L_CheckMode_Shadow_0" transform="translate(-37.921875, -16.5)"><foreignObject width="75.84375" height="33"><div xmlns="http://www.w3.org/1999/xhtml" class="labelBkg" style="display: table-cell; white-space: nowrap; line-height: 1.5; max-width: 200px; text-align: center;"><span class="edgeLabel"><p>shadow</p></span></div></foreignObject></g></g><g class="edgeLabel" transform="translate(248.8828125, 781.390625)"><g class="label" data-id="L_CheckMode_Trial_0" transform="translate(-17.7265625, -16.5)"><foreignObject width="35.453125" height="33"><div xmlns="http://www.w3.org/1999/xhtml" class="labelBkg" style="display: table-cell; white-space: nowrap; line-height: 1.5; max-width: 200px; text-align: center;"><span class="edgeLabel"><p>trial</p></span></div></foreignObject></g></g><g class="edgeLabel" transform="translate(145.625, 900.390625)"><g class="label" data-id="L_CheckMode_Prod_0" transform="translate(-51.375, -16.5)"><foreignObject width="102.75" height="33"><div xmlns="http://www.w3.org/1999/xhtml" class="labelBkg" style="display: table-cell; white-space: nowrap; line-height: 1.5; max-width: 200px; text-align: center;"><span class="edgeLabel"><p>production</p></span></div></foreignObject></g></g><g class="edgeLabel" transform="translate(351.9453125, 900.390625)"><g class="label" data-id="L_Shadow_Trial_0" transform="translate(-40.359375, -16.5)"><foreignObject width="80.71875" height="33"><div xmlns="http://www.w3.org/1999/xhtml" class="labelBkg" style="display: table-cell; white-space: nowrap; line-height: 1.5; max-width: 200px; text-align: center;"><span class="edgeLabel"><p>promote</p></span></div></foreignObject></g></g><g class="edgeLabel" transform="translate(243.375, 1138.390625)"><g class="label" data-id="L_Trial_Prod_0" transform="translate(-40.359375, -16.5)"><foreignObject width="80.71875" height="33"><div xmlns="http://www.w3.org/1999/xhtml" class="labelBkg" style="display: table-cell; white-space: nowrap; line-height: 1.5; max-width: 200px; text-align: center;"><span class="edgeLabel"><p>promote</p></span></div></foreignObject></g></g><g class="edgeLabel" transform="translate(376.1171875, 1138.390625)"><g class="label" data-id="L_Prod_Trial_0" transform="translate(-36.6953125, -16.5)"><foreignObject width="73.390625" height="33"><div xmlns="http://www.w3.org/1999/xhtml" class="labelBkg" style="display: table-cell; white-space: nowrap; line-height: 1.5; max-width: 200px; text-align: center;"><span class="edgeLabel"><p>demote</p></span></div></foreignObject></g></g><g class="edgeLabel" transform="translate(449, 900.390625)"><g class="label" data-id="L_Trial_Shadow_0" transform="translate(-36.6953125, -16.5)"><foreignObject width="73.390625" height="33"><div xmlns="http://www.w3.org/1999/xhtml" class="labelBkg" style="display: table-cell; white-space: nowrap; line-height: 1.5; max-width: 200px; text-align: center;"><span class="edgeLabel"><p>demote</p></span></div></foreignObject></g></g></g><g class="nodes"><g class="node default start" id="my-svg-flowchart-Start-0" data-look="classic" transform="translate(136.55078125, 50)"><g class="basic label-container outer-path"><path d="M-77.5 -42 C-42.65197162806074 -42, -7.803943256121485 -42, 77.5 -42 C77.5 -42, 77.5 -42, 77.5 -42 C78.0996443126644 -41.9807705740297, 78.6992886253288 -41.9615411480594, 80.19094923918993 -41.91370649551413 C80.98814371545228 -41.83680210315573, 81.78533819171462 -41.75989771079733, 82.87084079074924 -41.65518058057634 C83.55679505031812 -41.54428081554398, 84.24274930988697 -41.43338105051162, 85.52866240545762 -41.22548459362475 C86.15849043853275 -41.08173045508737, 86.78831847160788 -40.937976316549985, 88.1534925241993 -40.62638424763924 C88.80996860444372 -40.431545592935954, 89.46644468468816 -40.23670693823267, 90.73454515699207 -39.86034137444808 C91.4381001128832 -39.601426647089426, 92.14165506877434 -39.34251191973077, 93.26121420493371 -38.93050380853291 C94.11051677822772 -38.554542753001364, 94.95981935152172 -38.178581697469816, 95.72311704293745 -37.8406924519016 C96.44586247825013 -37.463636621239516, 97.16860791356284 -37.08658079057743, 98.11013718416538 -36.59538557318236 C98.83465313252418 -36.156179747558944, 99.55916908088298 -35.71697392193552, 100.41246585084303 -35.19970040545731 C100.9710703806355 -34.81004206707444, 101.52967491042796 -34.42038372869158, 102.62064228063107 -33.65937211845418 C103.33629354871015 -33.08865927644117, 104.05194481678923 -32.517946434428154, 104.72559260292711 -31.98073025150365 C105.39305709787358 -31.374556657336058, 106.06052159282005 -30.768383063168464, 106.71866712534643 -30.17067270410456 C107.1311810697361 -29.744718188497533, 107.54369501412577 -29.318763672890505, 108.59167587716325 -28.236637390975314 C108.9543544373492 -27.810614517186213, 109.31703299753512 -27.384591643397112, 110.33692226365724 -26.186571678066812 C110.75139689061572 -25.63121343735775, 111.1658715175742 -25.07585519664869, 111.94723469307215 -24.028899725131136 C112.52536205816233 -23.140740843418182, 113.10348942325251 -22.25258196170523, 113.41599604622454 -21.772487869042056 C113.82804833251713 -21.04084730991109, 114.24010061880972 -20.30920675078012, 114.73717086766601 -19.426608190115083 C115.11860488772402 -18.634552286084023, 115.50003890778203 -17.842496382052964, 115.90533016666413 -17.00090041114055 C116.146537456724 -16.405113741266927, 116.3877447467839 -15.809327071393302, 116.91567372608992 -14.50533228569494 C117.21017065751204 -13.618354449965448, 117.50466758893415 -12.731376614235957, 117.76404982753974 -11.950158638503375 C117.98661259242787 -11.101430356672429, 118.20917535731601 -10.252702074841483, 118.44697231163659 -9.34587922616521 C118.60136428735828 -8.553109061589929, 118.75575626307997 -7.760338897014648, 118.9616349034069 -6.703195591401943 C119.0478498348789 -6.034529607968936, 119.13406476635092 -5.365863624535928, 119.30592274386632 -4.032967088122642 C119.37041276111937 -3.028483014001459, 119.43490277837242 -2.023998939880276, 119.47842108042889 -1.346166258009517 C119.47842108042889 -0.32360545172722066, 119.47842108042889 0.6989553545550757, 119.47842108042889 1.3461662580095068 C119.41280848720788 2.368135358958563, 119.34719589398689 3.390104459907619, 119.30592274386632 4.032967088122613 C119.17532122492378 5.045886678854075, 119.04471970598122 6.058806269585537, 118.96163490340692 6.703195591401914 C118.79320105393951 7.568067809910326, 118.6247672044721 8.432940028418736, 118.44697231163659 9.3458792261652 C118.20430321105317 10.271281680143247, 117.96163411046976 11.196684134121293, 117.76404982753975 11.950158638503346 C117.51135935694239 12.711222075183626, 117.25866888634503 13.472285511863905, 116.91567372608995 14.505332285694912 C116.69973882253626 15.038695672289872, 116.48380391898257 15.572059058884832, 115.90533016666413 17.000900411140538 C115.63797580224723 17.55606746931924, 115.37062143783032 18.111234527497942, 114.73717086766601 19.426608190115072 C114.39833770894361 20.028240774004512, 114.05950455022122 20.629873357893953, 113.41599604622454 21.77248786904205 C112.93099793068197 22.517575214744795, 112.44599981513942 23.262662560447538, 111.94723469307215 24.02889972513111 C111.62411265408834 24.4618538203461, 111.30099061510451 24.89480791556109, 110.33692226365726 26.1865716780668 C109.96211650949625 26.626839843955892, 109.58731075533527 27.067108009844983, 108.59167587716327 28.23663739097529 C108.14084645821539 28.702155779822625, 107.69001703926753 29.16767416866996, 106.71866712534644 30.17067270410455 C106.05257485170956 30.77560008318575, 105.3864825780727 31.38052746226695, 104.72559260292714 31.980730251503623 C104.19458658276456 32.40419342191963, 103.66358056260198 32.82765659233564, 102.62064228063107 33.65937211845417 C102.13541811899246 33.99784348859785, 101.65019395735385 34.33631485874153, 100.41246585084306 35.19970040545729 C99.86589653229977 35.53103393835608, 99.31932721375647 35.86236747125487, 98.11013718416538 36.595385573182355 C97.59911173076034 36.86198722489634, 97.0880862773553 37.12858887661032, 95.72311704293745 37.8406924519016 C95.01663115970246 38.153432795250616, 94.31014527646745 38.466173138599636, 93.26121420493374 38.93050380853291 C92.62608904355177 39.16423573895411, 91.9909638821698 39.397967669375305, 90.7345451569921 39.860341374448076 C90.16331323944547 40.02988000911839, 89.59208132189885 40.19941864378871, 88.15349252419935 40.62638424763923 C87.20465557408623 40.8429500897628, 86.2558186239731 41.059515931886374, 85.52866240545765 41.22548459362474 C84.63560992103436 41.36986639358085, 83.74255743661105 41.51424819353696, 82.87084079074927 41.655180580576335 C82.07609926220218 41.73184834001874, 81.28135773365508 41.80851609946115, 80.19094923918993 41.91370649551413 C79.15507786066428 41.94692487442212, 78.11920648213862 41.98014325333012, 77.50000000000001 42 C77.50000000000001 42, 77.5 42, 77.5 42 C16.93199727501309 42, -43.63600544997382 42, -77.49999999999999 42 C-78.42956848880573 41.9701905478593, -79.35913697761148 41.9403810957186, -80.19094923918992 41.91370649551413 C-81.03009155988552 41.83275544505292, -81.86923388058112 41.75180439459171, -82.87084079074926 41.655180580576335 C-83.83883580311466 41.49868265389053, -84.80683081548007 41.34218472720473, -85.52866240545764 41.22548459362474 C-86.0539404788056 41.10559330114284, -86.57921855215356 40.98570200866094, -88.1534925241993 40.62638424763924 C-88.72261355437017 40.457472113261765, -89.29173458454106 40.2885599788843, -90.73454515699204 39.86034137444809 C-91.28854138633018 39.65646564096665, -91.8425376156683 39.45258990748521, -93.26121420493372 38.93050380853291 C-93.80188781496236 38.69116363988603, -94.342561424991 38.45182347123914, -95.72311704293743 37.84069245190161 C-96.46333422942578 37.454521619842374, -97.20355141591415 37.06835078778313, -98.11013718416538 36.59538557318236 C-98.7557777977468 36.20399443902391, -99.40141841132822 35.812603304865455, -100.41246585084302 35.19970040545732 C-100.9424532186534 34.830004160456184, -101.47244058646378 34.46030791545505, -102.62064228063107 33.65937211845418 C-103.05106734662995 33.31611958241213, -103.48149241262881 32.97286704637008, -104.72559260292711 31.980730251503655 C-105.23763343622836 31.515708314557507, -105.7496742695296 31.05068637761136, -106.71866712534641 30.17067270410458 C-107.29530238699027 29.575249453821865, -107.87193764863412 28.97982620353915, -108.59167587716325 28.236637390975304 C-108.98039419397237 27.780026737352493, -109.36911251078149 27.32341608372968, -110.33692226365724 26.186571678066816 C-110.67696585444861 25.730944245014793, -111.01700944523998 25.275316811962774, -111.94723469307215 24.02889972513114 C-112.47043271767961 23.225127060992843, -112.99363074228707 22.42135439685455, -113.41599604622452 21.772487869042074 C-113.80685731298644 21.078474110911234, -114.19771857974835 20.384460352780394, -114.73717086766601 19.426608190115086 C-115.18197759023218 18.502957513367228, -115.62678431279834 17.579306836619374, -115.90533016666413 17.000900411140556 C-116.28423340137658 16.065002095805095, -116.66313663608904 15.129103780469638, -116.91567372608992 14.505332285694944 C-117.20303913733156 13.63983345249561, -117.49040454857321 12.774334619296276, -117.76404982753974 11.950158638503362 C-117.91257488842633 11.383768210174207, -118.06109994931292 10.817377781845051, -118.44697231163659 9.345879226165215 C-118.57789076470512 8.673640639283175, -118.70880921777365 8.001402052401133, -118.9616349034069 6.703195591401948 C-119.03301965366936 6.14954956487975, -119.1044044039318 5.59590353835755, -119.30592274386632 4.032967088122666 C-119.36950881905949 3.0425626412329647, -119.43309489425266 2.0521581943432636, -119.47842108042889 1.3461662580095222 C-119.47842108042889 0.41378942268499996, -119.47842108042889 -0.5185874126395222, -119.47842108042889 -1.3461662580095017 C-119.4254165947698 -2.171753906600588, -119.3724121091107 -2.9973415551916744, -119.30592274386632 -4.032967088122608 C-119.23394360372946 -4.59122308513527, -119.16196446359258 -5.149479082147931, -118.96163490340692 -6.7031955914019274 C-118.82756636683003 -7.39160919132897, -118.69349783025315 -8.080022791256013, -118.44697231163659 -9.345879226165195 C-118.28447906579414 -9.965536397580673, -118.1219858199517 -10.585193568996152, -117.76404982753975 -11.950158638503343 C-117.59068330488554 -12.472310982533617, -117.41731678223132 -12.99446332656389, -116.91567372608995 -14.505332285694891 C-116.6327996895857 -15.204036624857848, -116.34992565308144 -15.902740964020804, -115.90533016666413 -17.000900411140535 C-115.60772399759281 -17.618885988969048, -115.3101178285215 -18.23687156679756, -114.73717086766601 -19.42660819011507 C-114.4251425843836 -19.980646003372858, -114.11311430110119 -20.534683816630643, -113.41599604622454 -21.77248786904206 C-112.86813237965285 -22.61415358288966, -112.32026871308118 -23.455819296737257, -111.94723469307215 -24.028899725131126 C-111.33581937635356 -24.84814054845281, -110.72440405963496 -25.667381371774493, -110.33692226365727 -26.1865716780668 C-109.71146908106263 -26.921264575636748, -109.086015898468 -27.65595747320669, -108.59167587716327 -28.23663739097529 C-107.96970163860291 -28.878876857323526, -107.34772740004256 -29.521116323671762, -106.71866712534646 -30.170672704104536 C-106.23133219997838 -30.613257389148277, -105.74399727461031 -31.055842074192018, -104.72559260292715 -31.98073025150362 C-104.02734506933413 -32.53756407839682, -103.32909753574113 -33.09439790529002, -102.62064228063109 -33.65937211845417 C-102.13911178579637 -33.995266946531714, -101.65758129096166 -34.33116177460925, -100.41246585084306 -35.19970040545729 C-99.64656114355421 -35.663996339971455, -98.88065643626537 -36.12829227448562, -98.1101371841654 -36.59538557318235 C-97.58147521601053 -36.87118818334459, -97.05281324785567 -37.14699079350683, -95.72311704293745 -37.8406924519016 C-94.78959804503567 -38.25393362041554, -93.8560790471339 -38.66717478892947, -93.26121420493374 -38.930503808532904 C-92.54328482837907 -39.19470845557143, -91.82535545182442 -39.45891310260995, -90.7345451569921 -39.860341374448076 C-90.13536430800943 -40.03817510526168, -89.53618345902674 -40.216008836075275, -88.15349252419935 -40.62638424763922 C-87.32515868380989 -40.81544604132465, -86.49682484342043 -41.004507835010074, -85.52866240545765 -41.22548459362474 C-84.97955008269146 -41.31426081553992, -84.43043775992527 -41.40303703745509, -82.87084079074928 -41.655180580576335 C-82.2400553081382 -41.716031697453296, -81.6092698255271 -41.77688281433025, -80.19094923918995 -41.91370649551413 C-79.60742187944285 -41.932419082174114, -79.02389451969576 -41.9511316688341, -77.50000000000001 -42 C-77.50000000000001 -42, -77.5 -42, -77.5 -42" stroke="none" stroke-width="0" fill="#FFF8F2" style="fill:#FFF8F2 !important;stroke:#1a1a1c !important;stroke-width:2px !important"/><path d="M-77.5 -42 C-34.63676127093921 -42, 8.226477458121579 -42, 77.5 -42 M-77.5 -42 C-19.763639641636303 -42, 37.972720716727395 -42, 77.5 -42 M77.5 -42 C77.5 -42, 77.5 -42, 77.5 -42 M77.5 -42 C77.5 -42, 77.5 -42, 77.5 -42 M77.5 -42 C78.46427577238708 -41.96907755282847, 79.42855154477418 -41.93815510565695, 80.19094923918993 -41.91370649551413 M77.5 -42 C78.17756882108732 -41.97827168671543, 78.85513764217465 -41.95654337343087, 80.19094923918993 -41.91370649551413 M80.19094923918993 -41.91370649551413 C81.06120520085521 -41.829753949528204, 81.9314611625205 -41.74580140354227, 82.87084079074924 -41.65518058057634 M80.19094923918993 -41.91370649551413 C80.72831003887315 -41.8618679454396, 81.26567083855637 -41.81002939536508, 82.87084079074924 -41.65518058057634 M82.87084079074924 -41.65518058057634 C83.80215865197069 -41.50461233125194, 84.73347651319213 -41.35404408192754, 85.52866240545762 -41.22548459362475 M82.87084079074924 -41.65518058057634 C83.84873425414222 -41.49708234909204, 84.82662771753517 -41.33898411760774, 85.52866240545762 -41.22548459362475 M85.52866240545762 -41.22548459362475 C86.29682784918815 -41.05015584384124, 87.06499329291869 -40.874827094057736, 88.1534925241993 -40.62638424763924 M85.52866240545762 -41.22548459362475 C86.1049259297784 -41.09395620466946, 86.68118945409917 -40.96242781571418, 88.1534925241993 -40.62638424763924 M88.1534925241993 -40.62638424763924 C88.9110053794556 -40.401558408465284, 89.66851823471191 -40.17673256929133, 90.73454515699207 -39.86034137444808 M88.1534925241993 -40.62638424763924 C88.71093013841646 -40.46093968978933, 89.26836775263364 -40.29549513193942, 90.73454515699207 -39.86034137444808 M90.73454515699207 -39.86034137444808 C91.62822139010228 -39.53146025961099, 92.52189762321248 -39.202579144773885, 93.26121420493371 -38.93050380853291 M90.73454515699207 -39.86034137444808 C91.24286786683459 -39.67327391834242, 91.75119057667712 -39.486206462236744, 93.26121420493371 -38.93050380853291 M93.26121420493371 -38.93050380853291 C93.7742000592925 -38.70342018799298, 94.28718591365127 -38.47633656745305, 95.72311704293745 -37.8406924519016 M93.26121420493371 -38.93050380853291 C94.00272205694432 -38.60226027849673, 94.74422990895494 -38.27401674846054, 95.72311704293745 -37.8406924519016 M95.72311704293745 -37.8406924519016 C96.49774152551501 -37.43657135551155, 97.27236600809258 -37.0324502591215, 98.11013718416538 -36.59538557318236 M95.72311704293745 -37.8406924519016 C96.54488841010995 -37.411974856017395, 97.36665977728244 -36.983257260133186, 98.11013718416538 -36.59538557318236 M98.11013718416538 -36.59538557318236 C98.8260839129303 -36.16137445883508, 99.54203064169522 -35.727363344487785, 100.41246585084303 -35.19970040545731 M98.11013718416538 -36.59538557318236 C98.8074790316608 -36.17265284719506, 99.50482087915624 -35.74992012120776, 100.41246585084303 -35.19970040545731 M100.41246585084303 -35.19970040545731 C100.98437489744835 -34.800761412089045, 101.55628394405367 -34.40182241872078, 102.62064228063107 -33.65937211845418 M100.41246585084303 -35.19970040545731 C101.04248808799065 -34.760224166046214, 101.67251032513826 -34.32074792663512, 102.62064228063107 -33.65937211845418 M102.62064228063107 -33.65937211845418 C103.1253046748428 -33.256917288700656, 103.6299670690545 -32.85446245894713, 104.72559260292711 -31.98073025150365 M102.62064228063107 -33.65937211845418 C103.22596587272176 -33.17664266209915, 103.83128946481246 -32.69391320574411, 104.72559260292711 -31.98073025150365 M104.72559260292711 -31.98073025150365 C105.27281176218303 -31.48376028969297, 105.82003092143896 -30.98679032788229, 106.71866712534643 -30.17067270410456 M104.72559260292711 -31.98073025150365 C105.2346526379073 -31.51841539672509, 105.7437126728875 -31.056100541946524, 106.71866712534643 -30.17067270410456 M106.71866712534643 -30.17067270410456 C107.34606134903744 -29.52283665811987, 107.97345557272845 -28.875000612135185, 108.59167587716325 -28.236637390975314 M106.71866712534643 -30.17067270410456 C107.32793895909853 -29.541549513607684, 107.93721079285062 -28.91242632311081, 108.59167587716325 -28.236637390975314 M108.59167587716325 -28.236637390975314 C109.22248205572802 -27.495656559744738, 109.85328823429279 -26.754675728514165, 110.33692226365724 -26.186571678066812 M108.59167587716325 -28.236637390975314 C109.20894043225557 -27.511563321215682, 109.8262049873479 -26.78648925145605, 110.33692226365724 -26.186571678066812 M110.33692226365724 -26.186571678066812 C110.90408510516538 -25.42662514004373, 111.4712479466735 -24.666678602020646, 111.94723469307215 -24.028899725131136 M110.33692226365724 -26.186571678066812 C110.90121840502115 -25.430466257075228, 111.46551454638507 -24.674360836083647, 111.94723469307215 -24.028899725131136 M111.94723469307215 -24.028899725131136 C112.33343818792618 -23.43558744687619, 112.71964168278019 -22.84227516862125, 113.41599604622454 -21.772487869042056 M111.94723469307215 -24.028899725131136 C112.2560919696789 -23.554412008471708, 112.56494924628568 -23.07992429181228, 113.41599604622454 -21.772487869042056 M113.41599604622454 -21.772487869042056 C113.8280914906584 -21.040770678261048, 114.24018693509224 -20.309053487480035, 114.73717086766601 -19.426608190115083 M113.41599604622454 -21.772487869042056 C113.71264323625236 -21.24576074436237, 114.00929042628019 -20.719033619682687, 114.73717086766601 -19.426608190115083 M114.73717086766601 -19.426608190115083 C115.10203560165945 -18.668958763123026, 115.4669003356529 -17.91130933613097, 115.90533016666413 -17.00090041114055 M114.73717086766601 -19.426608190115083 C115.00779567081676 -18.86464999592937, 115.27842047396751 -18.302691801743652, 115.90533016666413 -17.00090041114055 M115.90533016666413 -17.00090041114055 C116.16907069738754 -16.34945620117743, 116.43281122811095 -15.698011991214312, 116.91567372608992 -14.50533228569494 M115.90533016666413 -17.00090041114055 C116.26171734206349 -16.120617197626807, 116.61810451746285 -15.240333984113068, 116.91567372608992 -14.50533228569494 M116.91567372608992 -14.50533228569494 C117.21072897731528 -13.616672879674239, 117.50578422854066 -12.728013473653537, 117.76404982753974 -11.950158638503375 M116.91567372608992 -14.50533228569494 C117.14019460761446 -13.829111163087513, 117.36471548913899 -13.152890040480084, 117.76404982753974 -11.950158638503375 M117.76404982753974 -11.950158638503375 C117.96443548869213 -11.186001264834367, 118.16482114984453 -10.42184389116536, 118.44697231163659 -9.34587922616521 M117.76404982753974 -11.950158638503375 C117.97937670421456 -11.129023934483568, 118.1947035808894 -10.307889230463761, 118.44697231163659 -9.34587922616521 M118.44697231163659 -9.34587922616521 C118.56692529189904 -8.729946024588862, 118.6868782721615 -8.114012823012517, 118.9616349034069 -6.703195591401943 M118.44697231163659 -9.34587922616521 C118.60254783402803 -8.547031799583442, 118.75812335641947 -7.748184373001674, 118.9616349034069 -6.703195591401943 M118.9616349034069 -6.703195591401943 C119.06093449450921 -5.933047571734641, 119.1602340856115 -5.16289955206734, 119.30592274386632 -4.032967088122642 M118.9616349034069 -6.703195591401943 C119.08802959989774 -5.722903284874985, 119.21442429638856 -4.742610978348026, 119.30592274386632 -4.032967088122642 M119.30592274386632 -4.032967088122642 C119.37149942621267 -3.011557328033046, 119.43707610855901 -1.9901475679434504, 119.47842108042889 -1.346166258009517 M119.30592274386632 -4.032967088122642 C119.35323299152154 -3.2960717927480028, 119.40054323917676 -2.5591764973733637, 119.47842108042889 -1.346166258009517 M119.47842108042889 -1.346166258009517 C119.47842108042889 -0.6787647325551581, 119.47842108042889 -0.011363207100799189, 119.47842108042889 1.3461662580095068 M119.47842108042889 -1.346166258009517 C119.47842108042889 -0.5409712255713891, 119.47842108042889 0.26422380686673885, 119.47842108042889 1.3461662580095068 M119.47842108042889 1.3461662580095068 C119.4143188360792 2.3446104561561647, 119.35021659172952 3.343054654302822, 119.30592274386632 4.032967088122613 M119.47842108042889 1.3461662580095068 C119.41789489358898 2.288910473899742, 119.35736870674907 3.231654689789977, 119.30592274386632 4.032967088122613 M119.30592274386632 4.032967088122613 C119.21332967761785 4.751100625376773, 119.12073661136937 5.469234162630932, 118.96163490340692 6.703195591401914 M119.30592274386632 4.032967088122613 C119.22615546218293 4.651626373027599, 119.14638818049954 5.270285657932585, 118.96163490340692 6.703195591401914 M118.96163490340692 6.703195591401914 C118.79020403284073 7.583456879831944, 118.61877316227454 8.463718168261973, 118.44697231163659 9.3458792261652 M118.96163490340692 6.703195591401914 C118.75864494847974 7.745506108010768, 118.55565499355257 8.787816624619623, 118.44697231163659 9.3458792261652 M118.44697231163659 9.3458792261652 C118.29368614277726 9.930425822671628, 118.14039997391794 10.514972419178058, 117.76404982753975 11.950158638503346 M118.44697231163659 9.3458792261652 C118.27201826784767 10.013054820694592, 118.09706422405874 10.680230415223985, 117.76404982753975 11.950158638503346 M117.76404982753975 11.950158638503346 C117.53945868946147 12.626591362656793, 117.3148675513832 13.30302408681024, 116.91567372608995 14.505332285694912 M117.76404982753975 11.950158638503346 C117.57561805152324 12.517685125338723, 117.38718627550672 13.0852116121741, 116.91567372608995 14.505332285694912 M116.91567372608995 14.505332285694912 C116.59096473428171 15.307369773282547, 116.26625574247346 16.10940726087018, 115.90533016666413 17.000900411140538 M116.91567372608995 14.505332285694912 C116.67431237092224 15.101499499363493, 116.43295101575454 15.697666713032072, 115.90533016666413 17.000900411140538 M115.90533016666413 17.000900411140538 C115.6590488283459 17.512308879734814, 115.41276749002768 18.023717348329086, 114.73717086766601 19.426608190115072 M115.90533016666413 17.000900411140538 C115.6680721177928 17.493571826130843, 115.43081406892149 17.986243241121144, 114.73717086766601 19.426608190115072 M114.73717086766601 19.426608190115072 C114.2370333009864 20.31465308417504, 113.73689573430678 21.20269797823501, 113.41599604622454 21.77248786904205 M114.73717086766601 19.426608190115072 C114.22158755779878 20.34207856525575, 113.70600424793155 21.25754894039643, 113.41599604622454 21.77248786904205 M113.41599604622454 21.77248786904205 C112.94659380243907 22.493615767647942, 112.47719155865362 23.21474366625383, 111.94723469307215 24.02889972513111 M113.41599604622454 21.77248786904205 C112.93153095055636 22.516756353081846, 112.44706585488821 23.26102483712164, 111.94723469307215 24.02889972513111 M111.94723469307215 24.02889972513111 C111.4246727594105 24.729085109866208, 110.90211082574886 25.4292704946013, 110.33692226365726 26.1865716780668 M111.94723469307215 24.02889972513111 C111.34403546970775 24.83713173185968, 110.74083624634335 25.645363738588248, 110.33692226365726 26.1865716780668 M110.33692226365726 26.1865716780668 C109.85615754749907 26.751305269953527, 109.37539283134089 27.31603886184025, 108.59167587716327 28.23663739097529 M110.33692226365726 26.1865716780668 C109.64722750518676 26.996726386109767, 108.95753274671625 27.80688109415273, 108.59167587716327 28.23663739097529 M108.59167587716327 28.23663739097529 C108.16646330439995 28.67570428295489, 107.74125073163663 29.11477117493449, 106.71866712534644 30.17067270410455 M108.59167587716327 28.23663739097529 C107.8953403449829 28.955660998161935, 107.19900481280253 29.674684605348578, 106.71866712534644 30.17067270410455 M106.71866712534644 30.17067270410455 C106.09591329131946 30.736241259004323, 105.47315945729248 31.3018098139041, 104.72559260292714 31.980730251503623 M106.71866712534644 30.17067270410455 C106.11314570680614 30.720591235204054, 105.50762428826583 31.270509766303558, 104.72559260292714 31.980730251503623 M104.72559260292714 31.980730251503623 C104.28932661513353 32.32864076724352, 103.85306062733991 32.676551282983425, 102.62064228063107 33.65937211845417 M104.72559260292714 31.980730251503623 C104.11208826801209 32.469983632562375, 103.49858393309704 32.95923701362112, 102.62064228063107 33.65937211845417 M102.62064228063107 33.65937211845417 C101.78921575211903 34.23933927286984, 100.957789223607 34.81930642728551, 100.41246585084306 35.19970040545729 M102.62064228063107 33.65937211845417 C101.8292264668096 34.21142953033762, 101.03781065298814 34.763486942221064, 100.41246585084306 35.19970040545729 M100.41246585084306 35.19970040545729 C99.61735803371815 35.6816994367706, 98.82225021659323 36.16369846808391, 98.11013718416538 36.595385573182355 M100.41246585084306 35.19970040545729 C99.5801634649976 35.704247002908545, 98.74786107915213 36.2087936003598, 98.11013718416538 36.595385573182355 M98.11013718416538 36.595385573182355 C97.3793208151324 36.976652004796634, 96.64850444609944 37.35791843641091, 95.72311704293745 37.8406924519016 M98.11013718416538 36.595385573182355 C97.27100389362117 37.03316087336875, 96.43187060307694 37.470936173555145, 95.72311704293745 37.8406924519016 M95.72311704293745 37.8406924519016 C95.0623807740963 38.13318079807255, 94.40164450525516 38.42566914424351, 93.26121420493374 38.93050380853291 M95.72311704293745 37.8406924519016 C94.98305512712007 38.16829590887722, 94.2429932113027 38.495899365852836, 93.26121420493374 38.93050380853291 M93.26121420493374 38.93050380853291 C92.32484568697411 39.27509607883775, 91.38847716901448 39.619688349142585, 90.7345451569921 39.860341374448076 M93.26121420493374 38.93050380853291 C92.38365264928156 39.25345457310301, 91.50609109362937 39.57640533767311, 90.7345451569921 39.860341374448076 M90.7345451569921 39.860341374448076 C89.89139298982832 40.11058451186625, 89.04824082266454 40.36082764928442, 88.15349252419935 40.62638424763923 M90.7345451569921 39.860341374448076 C89.71154652306788 40.16396199916738, 88.68854788914365 40.467582623886685, 88.15349252419935 40.62638424763923 M88.15349252419935 40.62638424763923 C87.38956436120843 40.800745865744766, 86.62563619821749 40.975107483850294, 85.52866240545765 41.22548459362474 M88.15349252419935 40.62638424763923 C87.60467655310919 40.75164791168165, 87.05586058201904 40.87691157572407, 85.52866240545765 41.22548459362474 M85.52866240545765 41.22548459362474 C84.63253181659921 41.370364037634864, 83.73640122774077 41.51524348164499, 82.87084079074927 41.655180580576335 M85.52866240545765 41.22548459362474 C84.7210914803068 41.356046397997076, 83.91352055515594 41.4866082023694, 82.87084079074927 41.655180580576335 M82.87084079074927 41.655180580576335 C81.98240247787902 41.74088715611553, 81.09396416500877 41.826593731654725, 80.19094923918993 41.91370649551413 M82.87084079074927 41.655180580576335 C82.31935012974891 41.70838222137848, 81.76785946874854 41.76158386218063, 80.19094923918993 41.91370649551413 M80.19094923918993 41.91370649551413 C79.1147696331177 41.94821748082433, 78.03859002704547 41.982728466134546, 77.50000000000001 42 M80.19094923918993 41.91370649551413 C79.39466614431794 41.939241744495654, 78.59838304944594 41.96477699347718, 77.50000000000001 42 M77.50000000000001 42 C77.50000000000001 42, 77.5 42, 77.5 42 M77.50000000000001 42 C77.50000000000001 42, 77.5 42, 77.5 42 M77.5 42 C43.73818120315867 42, 9.976362406317335 42, -77.49999999999999 42 M77.5 42 C46.245485336717735 42, 14.990970673435477 42, -77.49999999999999 42 M-77.49999999999999 42 C-78.16501081641819 41.9786743974825, -78.8300216328364 41.95734879496499, -80.19094923918992 41.91370649551413 M-77.49999999999999 42 C-78.25971697976914 41.9756373551582, -79.0194339595383 41.9512747103164, -80.19094923918992 41.91370649551413 M-80.19094923918992 41.91370649551413 C-80.97158523755961 41.83839947960355, -81.7522212359293 41.76309246369297, -82.87084079074926 41.655180580576335 M-80.19094923918992 41.91370649551413 C-80.87186097345744 41.84801975942551, -81.55277270772498 41.782333023336896, -82.87084079074926 41.655180580576335 M-82.87084079074926 41.655180580576335 C-83.48226645870463 41.55633002025818, -84.09369212666 41.45747945994003, -85.52866240545764 41.22548459362474 M-82.87084079074926 41.655180580576335 C-83.66045333382041 41.527522148149316, -84.45006587689156 41.3998637157223, -85.52866240545764 41.22548459362474 M-85.52866240545764 41.22548459362474 C-86.34379679697295 41.03943548801038, -87.15893118848827 40.85338638239603, -88.1534925241993 40.62638424763924 M-85.52866240545764 41.22548459362474 C-86.4336970415713 41.01891634383473, -87.33873167768499 40.81234809404472, -88.1534925241993 40.62638424763924 M-88.1534925241993 40.62638424763924 C-89.15610809427503 40.328813209277286, -90.15872366435075 40.031242170915334, -90.73454515699204 39.86034137444809 M-88.1534925241993 40.62638424763924 C-89.13984304622402 40.33364059016184, -90.12619356824874 40.04089693268445, -90.73454515699204 39.86034137444809 M-90.73454515699204 39.86034137444809 C-91.41759967587286 39.60897099741319, -92.1006541947537 39.35760062037829, -93.26121420493372 38.93050380853291 M-90.73454515699204 39.86034137444809 C-91.31795893604884 39.645639710737335, -91.90137271510564 39.43093804702658, -93.26121420493372 38.93050380853291 M-93.26121420493372 38.93050380853291 C-94.02528164031025 38.59227382014689, -94.78934907568677 38.25404383176088, -95.72311704293743 37.84069245190161 M-93.26121420493372 38.93050380853291 C-93.86507075623828 38.66319442603854, -94.46892730754283 38.39588504354416, -95.72311704293743 37.84069245190161 M-95.72311704293743 37.84069245190161 C-96.45241330828064 37.46021905740861, -97.18170957362385 37.07974566291561, -98.11013718416538 36.59538557318236 M-95.72311704293743 37.84069245190161 C-96.4850388186596 37.44319834954155, -97.24696059438178 37.045704247181476, -98.11013718416538 36.59538557318236 M-98.11013718416538 36.59538557318236 C-98.57786219945345 36.31184792025744, -99.04558721474153 36.02831026733253, -100.41246585084302 35.19970040545732 M-98.11013718416538 36.59538557318236 C-99.00907284385801 36.05044549354437, -99.90800850355065 35.50550541390639, -100.41246585084302 35.19970040545732 M-100.41246585084302 35.19970040545732 C-101.15652119210584 34.68067960902898, -101.90057653336865 34.161658812600635, -102.62064228063107 33.65937211845418 M-100.41246585084302 35.19970040545732 C-101.22007694536701 34.6363458668382, -102.027688039891 34.072991328219075, -102.62064228063107 33.65937211845418 M-102.62064228063107 33.65937211845418 C-103.31692765905349 33.104103058094395, -104.0132130374759 32.548833997734604, -104.72559260292711 31.980730251503655 M-102.62064228063107 33.65937211845418 C-103.08581275264493 33.28841104572926, -103.5509832246588 32.917449973004345, -104.72559260292711 31.980730251503655 M-104.72559260292711 31.980730251503655 C-105.28498844467293 31.472701748833014, -105.84438428641874 30.964673246162373, -106.71866712534641 30.17067270410458 M-104.72559260292711 31.980730251503655 C-105.43743965619826 31.33424959216372, -106.14928670946944 30.687768932823786, -106.71866712534641 30.17067270410458 M-106.71866712534641 30.17067270410458 C-107.14294182623856 29.73257424183268, -107.5672165271307 29.29447577956078, -108.59167587716325 28.236637390975304 M-106.71866712534641 30.17067270410458 C-107.22922637912113 29.64347835688789, -107.73978563289583 29.116284009671205, -108.59167587716325 28.236637390975304 M-108.59167587716325 28.236637390975304 C-109.06134086738864 27.68494216876155, -109.53100585761402 27.13324694654779, -110.33692226365724 26.186571678066816 M-108.59167587716325 28.236637390975304 C-109.24006275875513 27.47500526559876, -109.88844964034699 26.71337314022222, -110.33692226365724 26.186571678066816 M-110.33692226365724 26.186571678066816 C-110.71591841374953 25.678751364202707, -111.09491456384184 25.170931050338602, -111.94723469307215 24.02889972513114 M-110.33692226365724 26.186571678066816 C-110.9450525907892 25.371732441522514, -111.55318291792118 24.556893204978216, -111.94723469307215 24.02889972513114 M-111.94723469307215 24.02889972513114 C-112.44131622466799 23.269857813131804, -112.93539775626384 22.510815901132467, -113.41599604622452 21.772487869042074 M-111.94723469307215 24.02889972513114 C-112.287166718676 23.506672849273702, -112.62709874427986 22.98444597341626, -113.41599604622452 21.772487869042074 M-113.41599604622452 21.772487869042074 C-113.8422783485595 21.015580475482466, -114.2685606508945 20.25867308192286, -114.73717086766601 19.426608190115086 M-113.41599604622452 21.772487869042074 C-113.7960768085268 21.097615988223755, -114.1761575708291 20.42274410740544, -114.73717086766601 19.426608190115086 M-114.73717086766601 19.426608190115086 C-115.10612919176769 18.660458335674484, -115.47508751586936 17.894308481233885, -115.90533016666413 17.000900411140556 M-114.73717086766601 19.426608190115086 C-115.03995983717128 18.797860416291293, -115.34274880667657 18.169112642467496, -115.90533016666413 17.000900411140556 M-115.90533016666413 17.000900411140556 C-116.30076630009671 16.024165516324526, -116.6962024335293 15.047430621508493, -116.91567372608992 14.505332285694944 M-115.90533016666413 17.000900411140556 C-116.17369141053275 16.338042950373357, -116.44205265440138 15.675185489606157, -116.91567372608992 14.505332285694944 M-116.91567372608992 14.505332285694944 C-117.12127148621616 13.886104589749213, -117.32686924634241 13.266876893803481, -117.76404982753974 11.950158638503362 M-116.91567372608992 14.505332285694944 C-117.19295040140611 13.670219117681285, -117.47022707672231 12.835105949667625, -117.76404982753974 11.950158638503362 M-117.76404982753974 11.950158638503362 C-117.92464466381024 11.337740925561635, -118.08523950008073 10.725323212619905, -118.44697231163659 9.345879226165215 M-117.76404982753974 11.950158638503362 C-118.0015701305543 11.044390781158334, -118.23909043356886 10.138622923813305, -118.44697231163659 9.345879226165215 M-118.44697231163659 9.345879226165215 C-118.60963327861096 8.51064953915939, -118.77229424558531 7.675419852153565, -118.9616349034069 6.703195591401948 M-118.44697231163659 9.345879226165215 C-118.57748933389867 8.675701901631877, -118.70800635616074 8.00552457709854, -118.9616349034069 6.703195591401948 M-118.9616349034069 6.703195591401948 C-119.04062222588195 6.090585516096531, -119.11960954835699 5.477975440791114, -119.30592274386632 4.032967088122666 M-118.9616349034069 6.703195591401948 C-119.09320088201538 5.682795841955693, -119.22476686062384 4.662396092509439, -119.30592274386632 4.032967088122666 M-119.30592274386632 4.032967088122666 C-119.35040813909937 3.34007114940318, -119.39489353433243 2.6471752106836943, -119.47842108042889 1.3461662580095222 M-119.30592274386632 4.032967088122666 C-119.358638258852 3.2118803910228793, -119.41135377383767 2.3907936939230927, -119.47842108042889 1.3461662580095222 M-119.47842108042889 1.3461662580095222 C-119.47842108042889 0.7688184717962592, -119.47842108042889 0.19147068558299618, -119.47842108042889 -1.3461662580095017 M-119.47842108042889 1.3461662580095222 C-119.47842108042889 0.5077611564446808, -119.47842108042889 -0.3306439451201606, -119.47842108042889 -1.3461662580095017 M-119.47842108042889 -1.3461662580095017 C-119.42498419087622 -2.1784889462731956, -119.37154730132355 -3.010811634536889, -119.30592274386632 -4.032967088122608 M-119.47842108042889 -1.3461662580095017 C-119.43218062668338 -2.0663986497183826, -119.38594017293785 -2.7866310414272633, -119.30592274386632 -4.032967088122608 M-119.30592274386632 -4.032967088122608 C-119.2177909586687 -4.716499810525922, -119.12965917347108 -5.400032532929236, -118.96163490340692 -6.7031955914019274 M-119.30592274386632 -4.032967088122608 C-119.19534056453426 -4.890620634100856, -119.0847583852022 -5.748274180079103, -118.96163490340692 -6.7031955914019274 M-118.96163490340692 -6.7031955914019274 C-118.82105336279609 -7.425052090519324, -118.68047182218528 -8.14690858963672, -118.44697231163659 -9.345879226165195 M-118.96163490340692 -6.7031955914019274 C-118.79433192280122 -7.5622610373146575, -118.62702894219554 -8.421326483227388, -118.44697231163659 -9.345879226165195 M-118.44697231163659 -9.345879226165195 C-118.25291446357346 -10.085905906033297, -118.05885661551032 -10.825932585901398, -117.76404982753975 -11.950158638503343 M-118.44697231163659 -9.345879226165195 C-118.20103804245532 -10.283733183139866, -117.95510377327406 -11.221587140114536, -117.76404982753975 -11.950158638503343 M-117.76404982753975 -11.950158638503343 C-117.52309050994238 -12.67588971145306, -117.282131192345 -13.401620784402779, -116.91567372608995 -14.505332285694891 M-117.76404982753975 -11.950158638503343 C-117.51456477407312 -12.701567869499724, -117.2650797206065 -13.452977100496106, -116.91567372608995 -14.505332285694891 M-116.91567372608995 -14.505332285694891 C-116.53386747445776 -15.448401108948074, -116.1520612228256 -16.391469932201257, -115.90533016666413 -17.000900411140535 M-116.91567372608995 -14.505332285694891 C-116.6257212749401 -15.221520445884298, -116.33576882379026 -15.937708606073704, -115.90533016666413 -17.000900411140535 M-115.90533016666413 -17.000900411140535 C-115.5395105387982 -17.760532695690255, -115.17369091093228 -18.52016498023998, -114.73717086766601 -19.42660819011507 M-115.90533016666413 -17.000900411140535 C-115.54734274108417 -17.744268960061174, -115.1893553155042 -18.487637508981813, -114.73717086766601 -19.42660819011507 M-114.73717086766601 -19.42660819011507 C-114.36962754373269 -20.079218579555985, -114.00208421979937 -20.731828968996897, -113.41599604622454 -21.77248786904206 M-114.73717086766601 -19.42660819011507 C-114.28939027777223 -20.221687970173, -113.84160968787845 -21.016767750230933, -113.41599604622454 -21.77248786904206 M-113.41599604622454 -21.77248786904206 C-112.8548605152016 -22.63454273068141, -112.29372498417865 -23.496597592320757, -111.94723469307215 -24.028899725131126 M-113.41599604622454 -21.77248786904206 C-112.98585174822674 -22.433305020683616, -112.55570745022892 -23.094122172325168, -111.94723469307215 -24.028899725131126 M-111.94723469307215 -24.028899725131126 C-111.45899327374144 -24.683098747325936, -110.97075185441075 -25.337297769520745, -110.33692226365727 -26.1865716780668 M-111.94723469307215 -24.028899725131126 C-111.50846294225329 -24.616813898299576, -111.06969119143444 -25.204728071468022, -110.33692226365727 -26.1865716780668 M-110.33692226365727 -26.1865716780668 C-109.7147881359806 -26.917365824870533, -109.09265400830392 -27.64815997167426, -108.59167587716327 -28.23663739097529 M-110.33692226365727 -26.1865716780668 C-109.76964875430572 -26.85292342092823, -109.20237524495417 -27.51927516378966, -108.59167587716327 -28.23663739097529 M-108.59167587716327 -28.23663739097529 C-107.90087682745978 -28.94994412545089, -107.2100777777563 -29.663250859926492, -106.71866712534646 -30.170672704104536 M-108.59167587716327 -28.23663739097529 C-108.19652321981624 -28.64466495232261, -107.80137056246922 -29.052692513669932, -106.71866712534646 -30.170672704104536 M-106.71866712534646 -30.170672704104536 C-106.11599798445508 -30.718000872110423, -105.51332884356368 -31.265329040116313, -104.72559260292715 -31.98073025150362 M-106.71866712534646 -30.170672704104536 C-106.2445391317087 -30.601263203187063, -105.77041113807095 -31.031853702269586, -104.72559260292715 -31.98073025150362 M-104.72559260292715 -31.98073025150362 C-103.94542209863921 -32.60289546746422, -103.16525159435126 -33.22506068342482, -102.62064228063109 -33.65937211845417 M-104.72559260292715 -31.98073025150362 C-104.16207799066603 -32.43011815902825, -103.5985633784049 -32.87950606655288, -102.62064228063109 -33.65937211845417 M-102.62064228063109 -33.65937211845417 C-101.80797172504698 -34.226255918088285, -100.99530116946289 -34.793139717722404, -100.41246585084306 -35.19970040545729 M-102.62064228063109 -33.65937211845417 C-101.75819012806403 -34.260981405133, -100.89573797549697 -34.862590691811825, -100.41246585084306 -35.19970040545729 M-100.41246585084306 -35.19970040545729 C-99.56161450739235 -35.71549149001462, -98.71076316394162 -36.231282574571956, -98.1101371841654 -36.59538557318235 M-100.41246585084306 -35.19970040545729 C-99.57660803330913 -35.706402326492125, -98.74075021577521 -36.213104247526964, -98.1101371841654 -36.59538557318235 M-98.1101371841654 -36.59538557318235 C-97.42592432656292 -36.95233898273431, -96.74171146896043 -37.309292392286274, -95.72311704293745 -37.8406924519016 M-98.1101371841654 -36.59538557318235 C-97.15940915114139 -37.09137977904061, -96.20868111811737 -37.58737398489887, -95.72311704293745 -37.8406924519016 M-95.72311704293745 -37.8406924519016 C-94.74705109622273 -38.272767892544636, -93.77098514950802 -38.70484333318766, -93.26121420493374 -38.930503808532904 M-95.72311704293745 -37.8406924519016 C-94.8066121898204 -38.24640196322601, -93.89010733670335 -38.65211147455042, -93.26121420493374 -38.930503808532904 M-93.26121420493374 -38.930503808532904 C-92.64413304157206 -39.157595380885745, -92.02705187821039 -39.384686953238585, -90.7345451569921 -39.860341374448076 M-93.26121420493374 -38.930503808532904 C-92.52744411098801 -39.20053798600132, -91.7936740170423 -39.47057216346974, -90.7345451569921 -39.860341374448076 M-90.7345451569921 -39.860341374448076 C-90.15752030462708 -40.03159932176475, -89.58049545226206 -40.202857269081434, -88.15349252419935 -40.62638424763922 M-90.7345451569921 -39.860341374448076 C-89.93209067292393 -40.098505653149964, -89.12963618885578 -40.33666993185185, -88.15349252419935 -40.62638424763922 M-88.15349252419935 -40.62638424763922 C-87.56118823509331 -40.76157383648098, -86.96888394598727 -40.896763425322725, -85.52866240545765 -41.22548459362474 M-88.15349252419935 -40.62638424763922 C-87.48671486654744 -40.77857189686742, -86.81993720889554 -40.93075954609562, -85.52866240545765 -41.22548459362474 M-85.52866240545765 -41.22548459362474 C-84.58567314766434 -41.37793978383385, -83.64268388987104 -41.53039497404296, -82.87084079074928 -41.655180580576335 M-85.52866240545765 -41.22548459362474 C-84.78187688149242 -41.34621908573121, -84.03509135752721 -41.46695357783767, -82.87084079074928 -41.655180580576335 M-82.87084079074928 -41.655180580576335 C-81.86233713316366 -41.75246971552052, -80.85383347557803 -41.8497588504647, -80.19094923918995 -41.91370649551413 M-82.87084079074928 -41.655180580576335 C-82.32202351525707 -41.70812432309373, -81.77320623976486 -41.76106806561112, -80.19094923918995 -41.91370649551413 M-80.19094923918995 -41.91370649551413 C-79.6164856957795 -41.93212842322585, -79.04202215236907 -41.95055035093756, -77.50000000000001 -42 M-80.19094923918995 -41.91370649551413 C-79.27838397318408 -41.9429706873944, -78.3658187071782 -41.97223487927467, -77.50000000000001 -42 M-77.50000000000001 -42 C-77.50000000000001 -42, -77.5 -42, -77.5 -42 M-77.50000000000001 -42 C-77.50000000000001 -42, -77.5 -42, -77.5 -42" stroke="#1a1a1c" stroke-width="2" fill="none" stroke-dasharray="0 0" style="fill:#FFF8F2 !important;stroke:#1a1a1c !important;stroke-width:2px !important"/></g><g class="label" style="color:#1a1a1c !important" transform="translate(-100, -33)"><rect/><foreignObject width="200" height="66"><div style="color: rgb(26, 26, 28) !important; display: table; white-space: break-spaces; line-height: 1.5; max-width: 200px; text-align: center; width: 200px;" xmlns="http://www.w3.org/1999/xhtml"><span style="color:#1a1a1c !important" class="nodeLabel"><p><b>Incoming task.assign</b></p></span></div></foreignObject></g></g><g class="node default gate" id="my-svg-flowchart-CheckCeiling-1" data-look="classic" transform="translate(136.55078125, 250.3046875)"><polygon points="88.3046875,0 176.609375,-88.3046875 88.3046875,-176.609375 0,-88.3046875" class="label-container" transform="translate(-87.8046875, 88.3046875)" style="fill:#ffffff !important;stroke:#1a1a1c !important;stroke-width:2px !important"/><g class="label" style="color:#1a1a1c !important" transform="translate(-37.3046875, -33)"><rect/><foreignObject width="74.609375" height="66"><div style="color: rgb(26, 26, 28) !important; display: table-cell; white-space: nowrap; line-height: 1.5; max-width: 200px; text-align: center;" xmlns="http://www.w3.org/1999/xhtml"><span style="color:#1a1a1c !important" class="nodeLabel"><p>Mode ≤<br />ceiling?</p></span></div></foreignObject></g></g><g class="node default deny" id="my-svg-flowchart-Deny-2" data-look="classic" transform="translate(88.0234375, 526.25)"><rect class="basic label-container" style="fill:#1a1a1c !important;stroke:#1a1a1c !important;stroke-width:2px !important" x="-80.0234375" y="-51" width="160.046875" height="102"/><g class="label" style="color:#ffffff !important" transform="translate(-44.0234375, -33)"><rect/><foreignObject width="88.046875" height="66"><div style="color: rgb(255, 255, 255) !important; display: table-cell; white-space: nowrap; line-height: 1.5; max-width: 200px; text-align: center;" xmlns="http://www.w3.org/1999/xhtml"><span style="color:#ffffff !important" class="nodeLabel"><p><b>Reject</b><br /><span style="font-size:16px;color:#ffffff">error -32502</span></p></span></div></foreignObject></g></g><g class="node default gate" id="my-svg-flowchart-CheckMode-3" data-look="classic" transform="translate(312.6875, 526.25)"><polygon points="84.640625,0 169.28125,-84.640625 84.640625,-169.28125 0,-84.640625" class="label-container" transform="translate(-84.140625, 84.640625)" style="fill:#ffffff !important;stroke:#1a1a1c !important;stroke-width:2px !important"/><g class="label" style="color:#1a1a1c !important" transform="translate(-33.640625, -33)"><rect/><foreignObject width="67.28125" height="66"><div style="color: rgb(26, 26, 28) !important; display: table-cell; white-space: nowrap; line-height: 1.5; max-width: 200px; text-align: center;" xmlns="http://www.w3.org/1999/xhtml"><span style="color:#1a1a1c !important" class="nodeLabel"><p>Task<br />mode?</p></span></div></foreignObject></g></g><g class="node default mode" id="my-svg-flowchart-Shadow-4" data-look="classic" transform="translate(400.47265625, 781.390625)"><rect class="basic label-container" style="fill:#FFE7DD !important;stroke:#EA4700 !important;stroke-width:2px !important" x="-88.0390625" y="-67.5" width="176.078125" height="135"/><g class="label" style="color:#5a1500 !important" transform="translate(-52.0390625, -49.5)"><rect/><foreignObject width="104.078125" height="99"><div style="color: rgb(90, 21, 0) !important; display: table-cell; white-space: nowrap; line-height: 1.5; max-width: 200px; text-align: center;" xmlns="http://www.w3.org/1999/xhtml"><span style="color:#5a1500 !important" class="nodeLabel"><p><b>SHADOW</b><br /><span style="font-size:16px;color:#5a1500">runs alongside<br />NOT delivered</span></p></span></div></foreignObject></g></g><g class="node default mode" id="my-svg-flowchart-Trial-5" data-look="classic" transform="translate(327.58984375, 1019.390625)"><rect class="basic label-container" style="fill:#FFE7DD !important;stroke:#EA4700 !important;stroke-width:2px !important" x="-95.140625" y="-67.5" width="190.28125" height="135"/><g class="label" style="color:#5a1500 !important" transform="translate(-59.140625, -49.5)"><rect/><foreignObject width="118.28125" height="99"><div style="color: rgb(90, 21, 0) !important; display: table-cell; white-space: nowrap; line-height: 1.5; max-width: 200px; text-align: center;" xmlns="http://www.w3.org/1999/xhtml"><span style="color:#5a1500 !important" class="nodeLabel"><p><b>TRIAL</b><br /><span style="font-size:16px;color:#5a1500">delivered<br />human-reviewed</span></p></span></div></foreignObject></g></g><g class="node default prod" id="my-svg-flowchart-Prod-6" data-look="classic" transform="translate(260.01953125, 1257.390625)"><rect class="basic label-container" style="fill:#EA4700 !important;stroke:#C73D00 !important;stroke-width:2.5px !important" x="-109.9453125" y="-67.5" width="219.890625" height="135"/><g class="label" style="color:#ffffff !important" transform="translate(-73.9453125, -49.5)"><rect/><foreignObject width="147.890625" height="99"><div style="color: rgb(255, 255, 255) !important; display: table-cell; white-space: nowrap; line-height: 1.5; max-width: 200px; text-align: center;" xmlns="http://www.w3.org/1999/xhtml"><span style="color:#ffffff !important" class="nodeLabel"><p><b>PRODUCTION</b><br /><span style="font-size:16px;color:#ffffff">delivered<br />policy-sampled</span></p></span></div></foreignObject></g></g></g></g></g><defs><filter id="my-svg-drop-shadow" height="130%" width="130%"><feDropShadow dx="4" dy="4" stdDeviation="0" flood-opacity="0.06" flood-color="#000000"/></filter></defs><defs><filter id="my-svg-drop-shadow-small" height="150%" width="150%"><feDropShadow dx="2" dy="2" stdDeviation="0" flood-opacity="0.06" flood-color="#000000"/></filter></defs><linearGradient id="my-svg-gradient" gradientUnits="objectBoundingBox" x1="0%" y1="0%" x2="100%" y2="0%"><stop offset="0%" stop-color="#1a1a1c" stop-opacity="1"/><stop offset="100%" stop-color="hsl(-120, 0%, 90%)" stop-opacity="1"/></linearGradient></svg>