<svg id="my-svg" width="100%" xmlns="http://www.w3.org/2000/svg" xmlns:xlink="http://www.w3.org/1999/xlink" class="classDiagram" style="max-width: 613.182px; background-color: transparent;" viewBox="0 0 613.181640625 1294" role="graphics-document document" aria-roledescription="class"><style>#my-svg{font-size:20px;fill:#1a1a1c;}@keyframes edge-animation-frame{from{stroke-dashoffset:0;}}@keyframes dash{to{stroke-dashoffset:0;}}#my-svg .edge-animation-slow{stroke-dasharray:9,5!important;stroke-dashoffset:900;animation:dash 50s linear infinite;stroke-linecap:round;}#my-svg .edge-animation-fast{stroke-dasharray:9,5!important;stroke-dashoffset:900;animation:dash 20s linear infinite;stroke-linecap:round;}#my-svg .error-icon{fill:hsl(207.6923076923, 100%, 100%);}#my-svg .error-text{fill:#000000;stroke:#000000;}#my-svg .edge-thickness-normal{stroke-width:1px;}#my-svg .edge-thickness-thick{stroke-width:3.5px;}#my-svg .edge-pattern-solid{stroke-dasharray:0;}#my-svg .edge-thickness-invisible{stroke-width:0;fill:none;}#my-svg .edge-pattern-dashed{stroke-dasharray:3;}#my-svg .edge-pattern-dotted{stroke-dasharray:2;}#my-svg .marker{fill:#4f4f52;stroke:#4f4f52;}#my-svg .marker.cross{stroke:#4f4f52;}#my-svg svg{font-size:20px;}#my-svg p{margin:0;}#my-svg g.classGroup text{fill:#1a1a1c;stroke:none;font-size:10px;}#my-svg g.classGroup text .title{font-weight:bolder;}#my-svg .cluster-label text{fill:#000000;}#my-svg .cluster-label span{color:#000000;}#my-svg .cluster-label span p{background-color:transparent;}#my-svg .cluster rect{fill:hsl(207.6923076923, 100%, 100%);stroke:hsl(207.6923076923, 60%, 90%);stroke-width:1px;}#my-svg .cluster text{fill:#000000;}#my-svg .cluster span{color:#000000;}#my-svg .nodeLabel,#my-svg .edgeLabel{color:#1a1a1c;}#my-svg .noteLabel .nodeLabel,#my-svg .noteLabel .edgeLabel{color:#333;}#my-svg .edgeLabel .label rect{fill:#FFF8F2;}#my-svg .label text{fill:#1a1a1c;}#my-svg .labelBkg{background:#FFF8F2;}#my-svg .edgeLabel .label span{background:#FFF8F2;}#my-svg .classTitle{font-weight:bolder;}#my-svg .node rect,#my-svg .node circle,#my-svg .node ellipse,#my-svg .node polygon,#my-svg .node path{fill:#FFF8F2;stroke:#1a1a1c;stroke-width:1;}#my-svg .divider{stroke:#1a1a1c;stroke-width:1;}#my-svg g.clickable{cursor:pointer;}#my-svg g.classGroup rect{fill:#FFF8F2;stroke:#1a1a1c;}#my-svg g.classGroup line{stroke:#1a1a1c;stroke-width:1;}#my-svg .classLabel .box{stroke:none;stroke-width:0;fill:#FFF8F2;opacity:0.5;}#my-svg .classLabel .label{fill:#1a1a1c;font-size:10px;}#my-svg .relation{stroke:#4f4f52;stroke-width:1;fill:none;}#my-svg .dashed-line{stroke-dasharray:3;}#my-svg .dotted-line{stroke-dasharray:1 2;}#my-svg [id$="-compositionStart"],#my-svg .composition{fill:#4f4f52!important;stroke:#4f4f52!important;stroke-width:1;}#my-svg [id$="-compositionEnd"],#my-svg .composition{fill:#4f4f52!important;stroke:#4f4f52!important;stroke-width:1;}#my-svg [id$="-dependencyStart"],#my-svg .dependency{fill:#4f4f52!important;stroke:#4f4f52!important;stroke-width:1;}#my-svg [id$="-dependencyEnd"],#my-svg .dependency{fill:#4f4f52!important;stroke:#4f4f52!important;stroke-width:1;}#my-svg [id$="-extensionStart"],#my-svg .extension{fill:transparent!important;stroke:#4f4f52!important;stroke-width:1;}#my-svg [id$="-extensionEnd"],#my-svg .extension{fill:transparent!important;stroke:#4f4f52!important;stroke-width:1;}#my-svg [id$="-aggregationStart"],#my-svg .aggregation{fill:transparent!important;stroke:#4f4f52!important;stroke-width:1;}#my-svg [id$="-aggregationEnd"],#my-svg .aggregation{fill:transparent!important;stroke:#4f4f52!important;stroke-width:1;}#my-svg [id$="-lollipopStart"],#my-svg .lollipop{fill:#FFF8F2!important;stroke:#4f4f52!important;stroke-width:1;}#my-svg [id$="-lollipopEnd"],#my-svg .lollipop{fill:#FFF8F2!important;stroke:#4f4f52!important;stroke-width:1;}#my-svg .edgeTerminals{font-size:11px;line-height:initial;}#my-svg .classTitleText{text-anchor:middle;font-size:18px;fill:#1a1a1c;}#my-svg .edgeLabel[data-look="neo"]{background-color:hsl(-92.3076923077, 100%, 97.4509803922%);text-align:center;}#my-svg .edgeLabel[data-look="neo"] p{background-color:hsl(-92.3076923077, 100%, 97.4509803922%);}#my-svg .edgeLabel[data-look="neo"] rect{opacity:0.5;background-color:hsl(-92.3076923077, 100%, 97.4509803922%);fill:hsl(-92.3076923077, 100%, 97.4509803922%);}#my-svg .label-icon{display:inline-block;height:1em;overflow:visible;vertical-align:-0.125em;}#my-svg .node .label-icon path{fill:currentColor;stroke:revert;stroke-width:revert;}#my-svg .node .neo-node{stroke:#1a1a1c;}#my-svg [data-look="neo"].node rect,#my-svg [data-look="neo"].cluster rect,#my-svg [data-look="neo"].node polygon{stroke:url(#my-svg-gradient);filter:drop-shadow( 1px 2px 2px rgba(185,185,185,1));}#my-svg [data-look="neo"].node path{stroke:url(#my-svg-gradient);stroke-width:1px;}#my-svg [data-look="neo"].node .outer-path{filter:drop-shadow( 1px 2px 2px rgba(185,185,185,1));}#my-svg [data-look="neo"].node .neo-line path{stroke:#1a1a1c;filter:none;}#my-svg [data-look="neo"].node circle{stroke:url(#my-svg-gradient);filter:drop-shadow( 1px 2px 2px rgba(185,185,185,1));}#my-svg [data-look="neo"].node circle .state-start{fill:#000000;}#my-svg [data-look="neo"].icon-shape .icon{fill:url(#my-svg-gradient);filter:drop-shadow( 1px 2px 2px rgba(185,185,185,1));}#my-svg [data-look="neo"].icon-shape .icon-neo path{stroke:url(#my-svg-gradient);filter:drop-shadow( 1px 2px 2px rgba(185,185,185,1));}#my-svg :root{--mermaid-font-family:"trebuchet ms",verdana,arial,sans-serif;}</style><g><defs><marker id="my-svg_class-aggregationStart" class="marker aggregation class" refX="18" refY="7" markerWidth="190" markerHeight="240" orient="auto"><path d="M 18,7 L9,13 L1,7 L9,1 Z"/></marker></defs><defs><marker id="my-svg_class-aggregationEnd" class="marker aggregation class" refX="1" refY="7" markerWidth="20" markerHeight="28" orient="auto"><path d="M 18,7 L9,13 L1,7 L9,1 Z"/></marker></defs><defs><marker id="my-svg_class-aggregationStart-margin" class="marker aggregation class" refX="15" refY="7" markerWidth="190" markerHeight="240" orient="auto" markerUnits="userSpaceOnUse"><path d="M 18,7 L9,13 L1,7 L9,1 Z" style="stroke-width: 2;"/></marker></defs><defs><marker id="my-svg_class-aggregationEnd-margin" class="marker aggregation class" refX="1" refY="7" markerWidth="20" markerHeight="28" orient="auto" markerUnits="userSpaceOnUse"><path d="M 18,7 L9,13 L1,7 L9,1 Z" style="stroke-width: 2;"/></marker></defs><defs><marker id="my-svg_class-extensionStart" class="marker extension class" refX="18" refY="7" markerWidth="190" markerHeight="240" orient="auto" markerUnits="userSpaceOnUse"><path d="M 1,7 L18,13 V 1 Z"/></marker></defs><defs><marker id="my-svg_class-extensionEnd" class="marker extension class" refX="1" refY="7" markerWidth="20" markerHeight="28" orient="auto"><path d="M 1,1 V 13 L18,7 Z"/></marker></defs><marker id="my-svg_class-extensionStart-margin" class="marker extension class" refX="18" refY="7" markerWidth="20" markerHeight="28" orient="auto" markerUnits="userSpaceOnUse" viewBox="0 0 20 14"><polygon points="10,7 18,13 18,1" style="stroke-width: 2; stroke-dasharray: 0;"/></marker><defs><marker id="my-svg_class-extensionEnd-margin" class="marker extension class" refX="9" refY="7" markerWidth="20" markerHeight="28" orient="auto" markerUnits="userSpaceOnUse" viewBox="0 0 20 14"><polygon points="10,1 10,13 18,7" style="stroke-width: 2; stroke-dasharray: 0;"/></marker></defs><defs><marker id="my-svg_class-compositionStart" class="marker composition class" refX="18" refY="7" markerWidth="190" markerHeight="240" orient="auto"><path d="M 18,7 L9,13 L1,7 L9,1 Z"/></marker></defs><defs><marker id="my-svg_class-compositionEnd" class="marker composition class" refX="1" refY="7" markerWidth="20" markerHeight="28" orient="auto"><path d="M 18,7 L9,13 L1,7 L9,1 Z"/></marker></defs><defs><marker id="my-svg_class-compositionStart-margin" class="marker composition class" refX="15" refY="7" markerWidth="190" markerHeight="240" orient="auto" markerUnits="userSpaceOnUse"><path viewBox="0 0 15 15" d="M 18,7 L9,13 L1,7 L9,1 Z" style="stroke-width: 0;"/></marker></defs><defs><marker id="my-svg_class-compositionEnd-margin" class="marker composition class" refX="3.5" refY="7" markerWidth="20" markerHeight="28" orient="auto" markerUnits="userSpaceOnUse"><path d="M 18,7 L9,13 L1,7 L9,1 Z" style="stroke-width: 0;"/></marker></defs><defs><marker id="my-svg_class-dependencyStart" class="marker dependency class" refX="6" refY="7" markerWidth="190" markerHeight="240" orient="auto"><path d="M 5,7 L9,13 L1,7 L9,1 Z"/></marker></defs><defs><marker id="my-svg_class-dependencyEnd" class="marker dependency class" refX="13" refY="7" markerWidth="20" markerHeight="28" orient="auto"><path d="M 18,7 L9,13 L14,7 L9,1 Z"/></marker></defs><defs><marker id="my-svg_class-dependencyStart-margin" class="marker dependency class" refX="4" refY="7" markerWidth="190" markerHeight="240" orient="auto" markerUnits="userSpaceOnUse"><path d="M 5,7 L9,13 L1,7 L9,1 Z" style="stroke-width: 0;"/></marker></defs><defs><marker id="my-svg_class-dependencyEnd-margin" class="marker dependency class" refX="16" refY="7" markerWidth="20" markerHeight="28" orient="auto" markerUnits="userSpaceOnUse"><path d="M 18,7 L9,13 L14,7 L9,1 Z" style="stroke-width: 0;"/></marker></defs><defs><marker id="my-svg_class-lollipopStart" class="marker lollipop class" refX="13" refY="7" markerWidth="190" markerHeight="240" orient="auto"><circle fill="transparent" cx="7" cy="7" r="6"/></marker></defs><defs><marker id="my-svg_class-lollipopEnd" class="marker lollipop class" refX="1" refY="7" markerWidth="190" markerHeight="240" orient="auto"><circle fill="transparent" cx="7" cy="7" r="6"/></marker></defs><defs><marker id="my-svg_class-lollipopStart-margin" class="marker lollipop class" refX="13" refY="7" markerWidth="190" markerHeight="240" orient="auto" markerUnits="userSpaceOnUse"><circle fill="transparent" cx="7" cy="7" r="6" stroke-width="2"/></marker></defs><defs><marker id="my-svg_class-lollipopEnd-margin" class="marker lollipop class" refX="1" refY="7" markerWidth="190" markerHeight="240" orient="auto" markerUnits="userSpaceOnUse"><circle fill="transparent" cx="7" cy="7" r="6" stroke-width="2"/></marker></defs><g class="root"><g class="clusters"/><g class="edgePaths"><path d="M204.461,242.507L187.243,257.089C170.025,271.671,135.589,300.836,118.371,327.084C101.152,353.333,101.152,376.667,101.152,388.333L101.152,400" id="my-svg-id_Workspace_Participant_1" class="edge-thickness-normal edge-pattern-solid relation" style=";;;" data-edge="true" data-et="edge" data-id="id_Workspace_Participant_1" data-points="W3sieCI6MjE3LjYyNSwieSI6MjMxLjM1ODQ0MDU2MTQ4NTZ9LHsieCI6MTAxLjE1MjM0Mzc1LCJ5IjozMzB9LHsieCI6MTAxLjE1MjM0Mzc1LCJ5Ijo0MDB9XQ==" data-look="classic" marker-start="url(#my-svg_class-aggregationStart)"/><path d="M314.871,307.25L314.871,311.042C314.871,314.833,314.871,322.417,314.871,332.875C314.871,343.333,314.871,356.667,314.871,363.333L314.871,370" id="my-svg-id_Workspace_Task_2" class="edge-thickness-normal edge-pattern-solid relation" style=";;;" data-edge="true" data-et="edge" data-id="id_Workspace_Task_2" data-points="W3sieCI6MzE0Ljg3MTA5Mzc1LCJ5IjoyOTB9LHsieCI6MzE0Ljg3MTA5Mzc1LCJ5IjozMzB9LHsieCI6MzE0Ljg3MTA5Mzc1LCJ5IjozNzB9XQ==" data-look="classic" marker-start="url(#my-svg_class-aggregationStart)"/><path d="M425.602,237.334L444.962,252.778C464.323,268.223,503.043,299.111,522.403,344.722C541.764,390.333,541.764,450.667,541.764,511C541.764,571.333,541.764,631.667,541.764,689.5C541.764,747.333,541.764,802.667,541.764,858C541.764,913.333,541.764,968.667,539.247,1003C536.731,1037.333,531.697,1050.667,529.181,1057.333L526.664,1064" id="my-svg-id_Workspace_EvidenceEntry_3" class="edge-thickness-normal edge-pattern-solid relation" style=";;;" data-edge="true" data-et="edge" data-id="id_Workspace_EvidenceEntry_3" data-points="W3sieCI6NDEyLjExNzE4NzUsInkiOjIyNi41NzY1NDc5NjAyOTkyMn0seyJ4Ijo1NDEuNzYzNjcxODc1LCJ5IjozMzB9LHsieCI6NTQxLjc2MzY3MTg3NSwieSI6NTExfSx7IngiOjU0MS43NjM2NzE4NzUsInkiOjY5Mn0seyJ4Ijo1NDEuNzYzNjcxODc1LCJ5Ijo4NTh9LHsieCI6NTQxLjc2MzY3MTg3NSwieSI6MTAyNH0seyJ4Ijo1MjYuNjY0MzM0MTI2NjU1NiwieSI6MTA2NH1d" data-look="classic" marker-start="url(#my-svg_class-aggregationStart)"/><path d="M235.176,638.775L229.643,647.646C224.11,656.517,213.044,674.258,207.511,689.796C201.979,705.333,201.979,718.667,201.979,725.333L201.979,732" id="my-svg-id_Task_Artefact_4" class="edge-thickness-normal edge-pattern-solid relation" style=";;;" data-edge="true" data-et="edge" data-id="id_Task_Artefact_4" data-points="W3sieCI6MjQ0LjMwNDY4NzUsInkiOjYyNC4xMzg3MDAwMjI0OTF9LHsieCI6MjAxLjk3ODUxNTYyNSwieSI6NjkyfSx7IngiOjIwMS45Nzg1MTU2MjUsInkiOjczMn1d" data-look="classic" marker-start="url(#my-svg_class-aggregationStart)"/><path d="M394.566,638.775L400.099,647.646C405.632,656.517,416.698,674.258,422.231,692.296C427.764,710.333,427.764,728.667,427.764,737.833L427.764,747" id="my-svg-id_Task_Message_5" class="edge-thickness-normal edge-pattern-solid relation" style=";;;" data-edge="true" data-et="edge" data-id="id_Task_Message_5" data-points="W3sieCI6Mzg1LjQzNzUsInkiOjYyNC4xMzg3MDAwMjI0OTF9LHsieCI6NDI3Ljc2MzY3MTg3NSwieSI6NjkyfSx7IngiOjQyNy43NjM2NzE4NzUsInkiOjc0N31d" data-look="classic" marker-start="url(#my-svg_class-aggregationStart)"/><path d="M427.764,969L427.764,978.167C427.764,987.333,427.764,1005.667,430.28,1021.5C432.797,1037.333,437.83,1050.667,440.346,1057.333L442.863,1064" id="my-svg-id_Message_EvidenceEntry_6" class="edge-thickness-normal edge-pattern-solid relation" style=";;;" data-edge="true" data-et="edge" data-id="id_Message_EvidenceEntry_6" data-points="W3sieCI6NDI3Ljc2MzY3MTg3NSwieSI6OTY5fSx7IngiOjQyNy43NjM2NzE4NzUsInkiOjEwMjR9LHsieCI6NDQyLjg2MzAwOTYyMzM0NDQsInkiOjEwNjR9XQ==" data-look="classic"/></g><g class="edgeLabels"><g class="edgeLabel" transform="translate(101.15234375, 330)"><g class="label" data-id="id_Workspace_Participant_1" transform="translate(-41.6796875, -15)"><foreignObject width="83.359375" height="30"><div xmlns="http://www.w3.org/1999/xhtml" class="labelBkg" style="display: table-cell; white-space: nowrap; line-height: 1.5; max-width: 200px; text-align: center;"><span class="edgeLabel"><p>members</p></span></div></foreignObject></g></g><g class="edgeLabel" transform="translate(314.87109375, 330)"><g class="label" data-id="id_Workspace_Task_2" transform="translate(-37.25, -15)"><foreignObject width="74.5" height="30"><div xmlns="http://www.w3.org/1999/xhtml" class="labelBkg" style="display: table-cell; white-space: nowrap; line-height: 1.5; max-width: 200px; text-align: center;"><span class="edgeLabel"><p>contains</p></span></div></foreignObject></g></g><g class="edgeLabel" transform="translate(541.763671875, 692)"><g class="label" data-id="id_Workspace_EvidenceEntry_3" transform="translate(-38.375, -15)"><foreignObject width="76.75" height="30"><div xmlns="http://www.w3.org/1999/xhtml" class="labelBkg" style="display: table-cell; white-space: nowrap; line-height: 1.5; max-width: 200px; text-align: center;"><span class="edgeLabel"><p>appends</p></span></div></foreignObject></g></g><g class="edgeLabel" transform="translate(201.978515625, 692)"><g class="label" data-id="id_Task_Artefact_4" transform="translate(-41.140625, -15)"><foreignObject width="82.28125" height="30"><div xmlns="http://www.w3.org/1999/xhtml" class="labelBkg" style="display: table-cell; white-space: nowrap; line-height: 1.5; max-width: 200px; text-align: center;"><span class="edgeLabel"><p>produces</p></span></div></foreignObject></g></g><g class="edgeLabel" transform="translate(427.763671875, 692)"><g class="label" data-id="id_Task_Message_5" transform="translate(-26.6796875, -15)"><foreignObject width="53.359375" height="30"><div xmlns="http://www.w3.org/1999/xhtml" class="labelBkg" style="display: table-cell; white-space: nowrap; line-height: 1.5; max-width: 200px; text-align: center;"><span class="edgeLabel"><p>drives</p></span></div></foreignObject></g></g><g class="edgeLabel" transform="translate(427.763671875, 1024)"><g class="label" data-id="id_Message_EvidenceEntry_6" transform="translate(-40.578125, -15)"><foreignObject width="81.15625" height="30"><div xmlns="http://www.w3.org/1999/xhtml" class="labelBkg" style="display: table-cell; white-space: nowrap; line-height: 1.5; max-width: 200px; text-align: center;"><span class="edgeLabel"><p>becomes</p></span></div></foreignObject></g></g><g class="edgeTerminals" transform="translate(194.57654395004255, 231.22175687223313)"><g class="inner" transform="translate(-3.0625, -8.25)"><foreignObject width="6.125" height="16.5" style="width: 9px; height: 12px;"><div xmlns="http://www.w3.org/1999/xhtml" style="display: table-cell; white-space: nowrap; line-height: 1.5;"><span class="edgeLabel"><p>1</p></span></div></foreignObject></g></g><g class="edgeTerminals" transform="translate(299.8710918750001, 307.49999839285715)"><g class="inner" transform="translate(-3.0625, -8.25)"><foreignObject width="6.125" height="16.5" style="width: 9px; height: 12px;"><div xmlns="http://www.w3.org/1999/xhtml" style="display: table-cell; white-space: nowrap; line-height: 1.5;"><span class="edgeLabel"><p>1</p></span></div></foreignObject></g></g><g class="edgeTerminals" transform="translate(416.4432830360401, 249.21578074615562)"><g class="inner" transform="translate(-3.0625, -8.25)"><foreignObject width="6.125" height="16.5" style="width: 9px; height: 12px;"><div xmlns="http://www.w3.org/1999/xhtml" style="display: table-cell; white-space: nowrap; line-height: 1.5;"><span class="edgeLabel"><p>1</p></span></div></foreignObject></g></g><g class="edgeTerminals" transform="translate(222.31610491906295, 631.0490058227654)"><g class="inner" transform="translate(-3.0625, -8.25)"><foreignObject width="6.125" height="16.5" style="width: 9px; height: 12px;"><div xmlns="http://www.w3.org/1999/xhtml" style="display: table-cell; white-space: nowrap; line-height: 1.5;"><span class="edgeLabel"><p>1</p></span></div></foreignObject></g></g><g class="edgeTerminals" transform="translate(381.97144972574415, 646.9254618856611)"><g class="inner" transform="translate(-3.0625, -8.25)"><foreignObject width="6.125" height="16.5" style="width: 9px; height: 12px;"><div xmlns="http://www.w3.org/1999/xhtml" style="display: table-cell; white-space: nowrap; line-height: 1.5;"><span class="edgeLabel"><p>1</p></span></div></foreignObject></g></g><g class="edgeTerminals" transform="translate(412.7636709375, 986.4999991964286)"><g class="inner" transform="translate(-3.0625, -8.25)"><foreignObject width="6.125" height="16.5" style="width: 9px; height: 12px;"><div xmlns="http://www.w3.org/1999/xhtml" style="display: table-cell; white-space: nowrap; line-height: 1.5;"><span class="edgeLabel"><p>1</p></span></div></foreignObject></g></g><g class="edgeTerminals" transform="translate(111.1523418749999, 377.49999839285715)"><g class="inner" transform="translate(-13.453125, -8.25)"/><foreignObject width="26.90625" height="16.5" style="width: 36px; height: 12px;"><div xmlns="http://www.w3.org/1999/xhtml" style="display: table-cell; white-space: nowrap; line-height: 1.5;"><span class="edgeLabel"><p>many</p></span></div></foreignObject></g><g class="edgeTerminals" transform="translate(324.8710918749999, 347.49999839285715)"><g class="inner" transform="translate(-13.453125, -8.25)"/><foreignObject width="26.90625" height="16.5" style="width: 36px; height: 12px;"><div xmlns="http://www.w3.org/1999/xhtml" style="display: table-cell; white-space: nowrap; line-height: 1.5;"><span class="edgeLabel"><p>many</p></span></div></foreignObject></g><g class="edgeTerminals" transform="translate(541.8780735410774, 1047.925038694652)"><g class="inner" transform="translate(-13.453125, -8.25)"/><foreignObject width="26.90625" height="16.5" style="width: 36px; height: 12px;"><div xmlns="http://www.w3.org/1999/xhtml" style="display: table-cell; white-space: nowrap; line-height: 1.5;"><span class="edgeLabel"><p>many</p></span></div></foreignObject></g><g class="edgeTerminals" transform="translate(211.9785178124999, 709.500001875)"><g class="inner" transform="translate(-13.453125, -8.25)"/><foreignObject width="26.90625" height="16.5" style="width: 36px; height: 12px;"><div xmlns="http://www.w3.org/1999/xhtml" style="display: table-cell; white-space: nowrap; line-height: 1.5;"><span class="edgeLabel"><p>many</p></span></div></foreignObject></g><g class="edgeTerminals" transform="translate(437.7636709375, 724.4999991964286)"><g class="inner" transform="translate(-13.453125, -8.25)"/><foreignObject width="26.90625" height="16.5" style="width: 36px; height: 12px;"><div xmlns="http://www.w3.org/1999/xhtml" style="display: table-cell; white-space: nowrap; line-height: 1.5;"><span class="edgeLabel"><p>many</p></span></div></foreignObject></g><g class="edgeTerminals" transform="translate(445.71616075841683, 1037.330249898651)"><g class="inner" transform="translate(-3.0625, -8.25)"/><foreignObject width="6.125" height="16.5" style="width: 9px; height: 12px;"><div xmlns="http://www.w3.org/1999/xhtml" style="display: table-cell; white-space: nowrap; line-height: 1.5;"><span class="edgeLabel"><p>1</p></span></div></foreignObject></g></g><g class="nodes"><g class="node default" id="my-svg-classId-Workspace-0" data-look="classic" transform="translate(314.87109375, 149)"><g class="basic label-container outer-path"><path d="M-97.24609375 -141 L97.24609375 -141 L97.24609375 141 L-97.24609375 141" stroke="none" stroke-width="0" fill="#FFF8F2" style=""/><path d="M-97.24609375 -141 C-45.42461312608397 -141, 6.396867497832062 -141, 97.24609375 -141 M-97.24609375 -141 C-50.833484951432595 -141, -4.4208761528651905 -141, 97.24609375 -141 M97.24609375 -141 C97.24609375 -58.13145964927244, 97.24609375 24.737080701455113, 97.24609375 141 M97.24609375 -141 C97.24609375 -58.92869195597589, 97.24609375 23.142616088048214, 97.24609375 141 M97.24609375 141 C29.531538471740333 141, -38.18301680651933 141, -97.24609375 141 M97.24609375 141 C57.06014015488862 141, 16.874186559777243 141, -97.24609375 141 M-97.24609375 141 C-97.24609375 44.925328776688545, -97.24609375 -51.14934244662291, -97.24609375 -141 M-97.24609375 141 C-97.24609375 40.67065119291557, -97.24609375 -59.65869761416886, -97.24609375 -141" stroke="#1a1a1c" stroke-width="1.3" fill="none" stroke-dasharray="0 0" style=""/></g><g class="annotation-group text" transform="translate(0, -117)"/><g class="label-group text" transform="translate(-53.1796875, -117)"><g class="label" style="font-weight: bolder" transform="translate(0,-15)"><foreignObject width="106.359375" height="30"><div xmlns="http://www.w3.org/1999/xhtml" style="display: table-cell; white-space: nowrap; line-height: 1.5; max-width: 121px; text-align: center;"><span class="nodeLabel markdown-node-label" style=""><p>Workspace</p></span></div></foreignObject></g></g><g class="members-group text" transform="translate(-85.24609375, -63)"><g class="label" style="" transform="translate(0,-15)"><foreignObject width="27.25" height="30"><div xmlns="http://www.w3.org/1999/xhtml" style="display: table-cell; white-space: nowrap; line-height: 1.5; max-width: 76px; text-align: center;"><span class="nodeLabel markdown-node-label" style=""><p>+id</p></span></div></foreignObject></g><g class="label" style="" transform="translate(0,15)"><foreignObject width="61.71875" height="30"><div xmlns="http://www.w3.org/1999/xhtml" style="display: table-cell; white-space: nowrap; line-height: 1.5; max-width: 99px; text-align: center;"><span class="nodeLabel markdown-node-label" style=""><p>+mode</p></span></div></foreignObject></g><g class="label" style="" transform="translate(0,45)"><foreignObject width="68.390625" height="30"><div xmlns="http://www.w3.org/1999/xhtml" style="display: table-cell; white-space: nowrap; line-height: 1.5; max-width: 107px; text-align: center;"><span class="nodeLabel markdown-node-label" style=""><p>+ceiling</p></span></div></foreignObject></g><g class="label" style="" transform="translate(0,75)"><foreignObject width="95.03125" height="30"><div xmlns="http://www.w3.org/1999/xhtml" style="display: table-cell; white-space: nowrap; line-height: 1.5; max-width: 122px; text-align: center;"><span class="nodeLabel markdown-node-label" style=""><p>+members</p></span></div></foreignObject></g><g class="label" style="" transform="translate(0,105)"><foreignObject width="117.3125" height="30"><div xmlns="http://www.w3.org/1999/xhtml" style="display: table-cell; white-space: nowrap; line-height: 1.5; max-width: 141px; text-align: center;"><span class="nodeLabel markdown-node-label" style=""><p>+policy_hash</p></span></div></foreignObject></g><g class="label" style="" transform="translate(0,135)"><foreignObject width="56.171875" height="30"><div xmlns="http://www.w3.org/1999/xhtml" style="display: table-cell; white-space: nowrap; line-height: 1.5; max-width: 94px; text-align: center;"><span class="nodeLabel markdown-node-label" style=""><p>+head</p></span></div></foreignObject></g></g><g class="methods-group text" transform="translate(-85.24609375, 141)"/><g class="divider" style=""><path d="M-97.24609375 -87 C-35.152615770529856 -86.99968074050285, 26.94086220894029 -86.9993614810057, 97.24609375 -86.999 M-97.24609375 -87 C-58.01923347613151 -86.9997983113832, -18.792373202263022 -86.99959662276642, 97.24609375 -86.999" stroke="#1a1a1c" stroke-width="1.3" fill="none" stroke-dasharray="0 0" style=""/></g><g class="divider" style=""><path d="M-97.24609375 117 C-32.30469869977651 117.00033390233246, 32.63669635044698 117.00066780466491, 97.24609375 117.001 M-97.24609375 117 C-42.417014424788846 117.00028190890355, 12.412064900422308 117.00056381780708, 97.24609375 117.001" stroke="#1a1a1c" stroke-width="1.3" fill="none" stroke-dasharray="0 0" style=""/></g></g><g class="node default" id="my-svg-classId-Participant-1" data-look="classic" transform="translate(101.15234375, 511)"><g class="basic label-container outer-path"><path d="M-93.15234375 -111 L93.15234375 -111 L93.15234375 111 L-93.15234375 111" stroke="none" stroke-width="0" fill="#FFF8F2" style=""/><path d="M-93.15234375 -111 C-45.30142920668853 -111, 2.5494853366229364 -111, 93.15234375 -111 M-93.15234375 -111 C-55.601446894317135 -111, -18.05055003863427 -111, 93.15234375 -111 M93.15234375 -111 C93.15234375 -66.36290311562004, 93.15234375 -21.72580623124007, 93.15234375 111 M93.15234375 -111 C93.15234375 -27.91715995046276, 93.15234375 55.16568009907448, 93.15234375 111 M93.15234375 111 C41.12798106128601 111, -10.896381627427985 111, -93.15234375 111 M93.15234375 111 C33.60037445260902 111, -25.951594844781965 111, -93.15234375 111 M-93.15234375 111 C-93.15234375 39.40861826664978, -93.15234375 -32.182763466700436, -93.15234375 -111 M-93.15234375 111 C-93.15234375 43.781700475451615, -93.15234375 -23.43659904909677, -93.15234375 -111" stroke="#1a1a1c" stroke-width="1.3" fill="none" stroke-dasharray="0 0" style=""/></g><g class="annotation-group text" transform="translate(0, -87)"/><g class="label-group text" transform="translate(-51.6796875, -87)"><g class="label" style="font-weight: bolder" transform="translate(0,-15)"><foreignObject width="103.359375" height="30"><div xmlns="http://www.w3.org/1999/xhtml" style="display: table-cell; white-space: nowrap; line-height: 1.5; max-width: 120px; text-align: center;"><span class="nodeLabel markdown-node-label" style=""><p>Participant</p></span></div></foreignObject></g></g><g class="members-group text" transform="translate(-81.15234375, -33)"><g class="label" style="" transform="translate(0,-15)"><foreignObject width="33.90625" height="30"><div xmlns="http://www.w3.org/1999/xhtml" style="display: table-cell; white-space: nowrap; line-height: 1.5; max-width: 82px; text-align: center;"><span class="nodeLabel markdown-node-label" style=""><p>+uri</p></span></div></foreignObject></g><g class="label" style="" transform="translate(0,15)"><foreignObject width="50.578125" height="30"><div xmlns="http://www.w3.org/1999/xhtml" style="display: table-cell; white-space: nowrap; line-height: 1.5; max-width: 94px; text-align: center;"><span class="nodeLabel markdown-node-label" style=""><p>+jwks</p></span></div></foreignObject></g><g class="label" style="" transform="translate(0,45)"><foreignObject width="110.625" height="30"><div xmlns="http://www.w3.org/1999/xhtml" style="display: table-cell; white-space: nowrap; line-height: 1.5; max-width: 136px; text-align: center;"><span class="nodeLabel markdown-node-label" style=""><p>+capabilities</p></span></div></foreignObject></g><g class="label" style="" transform="translate(0,75)"><foreignObject width="75.0625" height="30"><div xmlns="http://www.w3.org/1999/xhtml" style="display: table-cell; white-space: nowrap; line-height: 1.5; max-width: 106px; text-align: center;"><span class="nodeLabel markdown-node-label" style=""><p>+scopes</p></span></div></foreignObject></g></g><g class="methods-group text" transform="translate(-81.15234375, 111)"/><g class="divider" style=""><path d="M-93.15234375 -57 C-24.284204685363306 -56.999630346718654, 44.58393437927339 -56.99926069343731, 93.15234375 -56.999 M-93.15234375 -57 C-26.575160717751615 -56.99964264354308, 40.00202231449677 -56.99928528708617, 93.15234375 -56.999" stroke="#1a1a1c" stroke-width="1.3" fill="none" stroke-dasharray="0 0" style=""/></g><g class="divider" style=""><path d="M-93.15234375 87 C-42.99856707788815 87.0002692029779, 7.155209594223706 87.00053840595581, 93.15234375 87.001 M-93.15234375 87 C-52.71178779068721 87.00021706676574, -12.271231831374422 87.0004341335315, 93.15234375 87.001" stroke="#1a1a1c" stroke-width="1.3" fill="none" stroke-dasharray="0 0" style=""/></g></g><g class="node default" id="my-svg-classId-Task-2" data-look="classic" transform="translate(314.87109375, 511)"><g class="basic label-container outer-path"><path d="M-70.56640625 -141 L70.56640625 -141 L70.56640625 141 L-70.56640625 141" stroke="none" stroke-width="0" fill="#FFF8F2" style=""/><path d="M-70.56640625 -141 C-30.15969804118604 -141, 10.24701016762792 -141, 70.56640625 -141 M-70.56640625 -141 C-36.777665292197085 -141, -2.98892433439417 -141, 70.56640625 -141 M70.56640625 -141 C70.56640625 -64.99562127418928, 70.56640625 11.008757451621449, 70.56640625 141 M70.56640625 -141 C70.56640625 -67.75145712146565, 70.56640625 5.497085757068703, 70.56640625 141 M70.56640625 141 C20.523592087501264 141, -29.519222074997472 141, -70.56640625 141 M70.56640625 141 C18.508339766763847 141, -33.54972671647231 141, -70.56640625 141 M-70.56640625 141 C-70.56640625 83.91606427322219, -70.56640625 26.832128546444366, -70.56640625 -141 M-70.56640625 141 C-70.56640625 71.07830802311689, -70.56640625 1.1566160462337791, -70.56640625 -141" stroke="#1a1a1c" stroke-width="1.3" fill="none" stroke-dasharray="0 0" style=""/></g><g class="annotation-group text" transform="translate(0, -117)"/><g class="label-group text" transform="translate(-22.0546875, -117)"><g class="label" style="font-weight: bolder" transform="translate(0,-15)"><foreignObject width="44.109375" height="30"><div xmlns="http://www.w3.org/1999/xhtml" style="display: table-cell; white-space: nowrap; line-height: 1.5; max-width: 80px; text-align: center;"><span class="nodeLabel markdown-node-label" style=""><p>Task</p></span></div></foreignObject></g></g><g class="members-group text" transform="translate(-58.56640625, -63)"><g class="label" style="" transform="translate(0,-15)"><foreignObject width="27.25" height="30"><div xmlns="http://www.w3.org/1999/xhtml" style="display: table-cell; white-space: nowrap; line-height: 1.5; max-width: 76px; text-align: center;"><span class="nodeLabel markdown-node-label" style=""><p>+id</p></span></div></foreignObject></g><g class="label" style="" transform="translate(0,15)"><foreignObject width="48.375" height="30"><div xmlns="http://www.w3.org/1999/xhtml" style="display: table-cell; white-space: nowrap; line-height: 1.5; max-width: 92px; text-align: center;"><span class="nodeLabel markdown-node-label" style=""><p>+kind</p></span></div></foreignObject></g><g class="label" style="" transform="translate(0,45)"><foreignObject width="55.046875" height="30"><div xmlns="http://www.w3.org/1999/xhtml" style="display: table-cell; white-space: nowrap; line-height: 1.5; max-width: 93px; text-align: center;"><span class="nodeLabel markdown-node-label" style=""><p>+state</p></span></div></foreignObject></g><g class="label" style="" transform="translate(0,75)"><foreignObject width="61.71875" height="30"><div xmlns="http://www.w3.org/1999/xhtml" style="display: table-cell; white-space: nowrap; line-height: 1.5; max-width: 99px; text-align: center;"><span class="nodeLabel markdown-node-label" style=""><p>+mode</p></span></div></foreignObject></g><g class="label" style="" transform="translate(0,105)"><foreignObject width="91.75" height="30"><div xmlns="http://www.w3.org/1999/xhtml" style="display: table-cell; white-space: nowrap; line-height: 1.5; max-width: 118px; text-align: center;"><span class="nodeLabel markdown-node-label" style=""><p>+assignee</p></span></div></foreignObject></g><g class="label" style="" transform="translate(0,135)"><foreignObject width="95.078125" height="30"><div xmlns="http://www.w3.org/1999/xhtml" style="display: table-cell; white-space: nowrap; line-height: 1.5; max-width: 124px; text-align: center;"><span class="nodeLabel markdown-node-label" style=""><p>+delegator</p></span></div></foreignObject></g></g><g class="methods-group text" transform="translate(-58.56640625, 141)"/><g class="divider" style=""><path d="M-70.56640625 -87 C-29.88828646839555 -86.99971177418588, 10.789833313208902 -86.99942354837177, 70.56640625 -86.999 M-70.56640625 -87 C-37.97766763606583 -86.99976909169429, -5.388929022131663 -86.99953818338858, 70.56640625 -86.999" stroke="#1a1a1c" stroke-width="1.3" fill="none" stroke-dasharray="0 0" style=""/></g><g class="divider" style=""><path d="M-70.56640625 117 C-37.23939843746526 117.0002361393302, -3.9123906249305236 117.0004722786604, 70.56640625 117.001 M-70.56640625 117 C-25.54179719620788 117.00031902297033, 19.482811857584238 117.00063804594065, 70.56640625 117.001" stroke="#1a1a1c" stroke-width="1.3" fill="none" stroke-dasharray="0 0" style=""/></g></g><g class="node default" id="my-svg-classId-Artefact-3" data-look="classic" transform="translate(201.978515625, 858)"><g class="basic label-container outer-path"><path d="M-96.78515625 -126 L96.78515625 -126 L96.78515625 126 L-96.78515625 126" stroke="none" stroke-width="0" fill="#FFF8F2" style=""/><path d="M-96.78515625 -126 C-26.89087314019504 -126, 43.00340996960992 -126, 96.78515625 -126 M-96.78515625 -126 C-28.17468038158769 -126, 40.43579548682462 -126, 96.78515625 -126 M96.78515625 -126 C96.78515625 -74.73642270229874, 96.78515625 -23.472845404597493, 96.78515625 126 M96.78515625 -126 C96.78515625 -64.10825330027177, 96.78515625 -2.216506600543525, 96.78515625 126 M96.78515625 126 C24.144842834280524 126, -48.49547058143895 126, -96.78515625 126 M96.78515625 126 C37.9870685244478 126, -20.8110192011044 126, -96.78515625 126 M-96.78515625 126 C-96.78515625 60.242759101446666, -96.78515625 -5.514481797106669, -96.78515625 -126 M-96.78515625 126 C-96.78515625 63.34775432935676, -96.78515625 0.6955086587135213, -96.78515625 -126" stroke="#1a1a1c" stroke-width="1.3" fill="none" stroke-dasharray="0 0" style=""/></g><g class="annotation-group text" transform="translate(0, -102)"/><g class="label-group text" transform="translate(-37.7890625, -102)"><g class="label" style="font-weight: bolder" transform="translate(0,-15)"><foreignObject width="75.578125" height="30"><div xmlns="http://www.w3.org/1999/xhtml" style="display: table-cell; white-space: nowrap; line-height: 1.5; max-width: 103px; text-align: center;"><span class="nodeLabel markdown-node-label" style=""><p>Artefact</p></span></div></foreignObject></g></g><g class="members-group text" transform="translate(-84.78515625, -48)"><g class="label" style="" transform="translate(0,-15)"><foreignObject width="27.25" height="30"><div xmlns="http://www.w3.org/1999/xhtml" style="display: table-cell; white-space: nowrap; line-height: 1.5; max-width: 76px; text-align: center;"><span class="nodeLabel markdown-node-label" style=""><p>+id</p></span></div></foreignObject></g><g class="label" style="" transform="translate(0,15)"><foreignObject width="48.375" height="30"><div xmlns="http://www.w3.org/1999/xhtml" style="display: table-cell; white-space: nowrap; line-height: 1.5; max-width: 92px; text-align: center;"><span class="nodeLabel markdown-node-label" style=""><p>+kind</p></span></div></foreignObject></g><g class="label" style="" transform="translate(0,45)"><foreignObject width="77.296875" height="30"><div xmlns="http://www.w3.org/1999/xhtml" style="display: table-cell; white-space: nowrap; line-height: 1.5; max-width: 111px; text-align: center;"><span class="nodeLabel markdown-node-label" style=""><p>+content</p></span></div></foreignObject></g><g class="label" style="" transform="translate(0,75)"><foreignObject width="85.0625" height="30"><div xmlns="http://www.w3.org/1999/xhtml" style="display: table-cell; white-space: nowrap; line-height: 1.5; max-width: 118px; text-align: center;"><span class="nodeLabel markdown-node-label" style=""><p>+citations</p></span></div></foreignObject></g><g class="label" style="" transform="translate(0,105)"><foreignObject width="131.78125" height="30"><div xmlns="http://www.w3.org/1999/xhtml" style="display: table-cell; white-space: nowrap; line-height: 1.5; max-width: 160px; text-align: center;"><span class="nodeLabel markdown-node-label" style=""><p>+content_hash</p></span></div></foreignObject></g></g><g class="methods-group text" transform="translate(-84.78515625, 126)"/><g class="divider" style=""><path d="M-96.78515625 -72 C-27.35923695481192 -71.99964134004642, 42.06668234037616 -71.99928268009285, 96.78515625 -71.999 M-96.78515625 -72 C-31.59860265114122 -71.99966324095489, 33.58795094771756 -71.99932648190978, 96.78515625 -71.999" stroke="#1a1a1c" stroke-width="1.3" fill="none" stroke-dasharray="0 0" style=""/></g><g class="divider" style=""><path d="M-96.78515625 102 C-56.60884682548794 102.00020755408671, -16.432537400975875 102.00041510817341, 96.78515625 102.001 M-96.78515625 102 C-21.725661625761376 102.00038776346257, 53.33383299847725 102.00077552692512, 96.78515625 102.001" stroke="#1a1a1c" stroke-width="1.3" fill="none" stroke-dasharray="0 0" style=""/></g></g><g class="node default" id="my-svg-classId-Message-4" data-look="classic" transform="translate(427.763671875, 858)"><g class="basic label-container outer-path"><path d="M-79 -111 L79 -111 L79 111 L-79 111" stroke="none" stroke-width="0" fill="#FFF8F2" style=""/><path d="M-79 -111 C-19.28779034971928 -111, 40.42441930056144 -111, 79 -111 M-79 -111 C-41.178681603078715 -111, -3.35736320615743 -111, 79 -111 M79 -111 C79 -66.5306462661402, 79 -22.061292532280376, 79 111 M79 -111 C79 -60.95414985410297, 79 -10.908299708205945, 79 111 M79 111 C45.98580083396418 111, 12.971601667928354 111, -79 111 M79 111 C22.784282963814903 111, -33.431434072370195 111, -79 111 M-79 111 C-79 38.0878723963894, -79 -34.8242552072212, -79 -111 M-79 111 C-79 43.62142589310828, -79 -23.757148213783438, -79 -111" stroke="#1a1a1c" stroke-width="1.3" fill="none" stroke-dasharray="0 0" style=""/></g><g class="annotation-group text" transform="translate(0, -87)"/><g class="label-group text" transform="translate(-42.25, -87)"><g class="label" style="font-weight: bolder" transform="translate(0,-15)"><foreignObject width="84.5" height="30"><div xmlns="http://www.w3.org/1999/xhtml" style="display: table-cell; white-space: nowrap; line-height: 1.5; max-width: 106px; text-align: center;"><span class="nodeLabel markdown-node-label" style=""><p>Message</p></span></div></foreignObject></g></g><g class="members-group text" transform="translate(-67, -33)"><g class="label" style="" transform="translate(0,-15)"><foreignObject width="27.25" height="30"><div xmlns="http://www.w3.org/1999/xhtml" style="display: table-cell; white-space: nowrap; line-height: 1.5; max-width: 76px; text-align: center;"><span class="nodeLabel markdown-node-label" style=""><p>+id</p></span></div></foreignObject></g><g class="label" style="" transform="translate(0,15)"><foreignObject width="49.484375" height="30"><div xmlns="http://www.w3.org/1999/xhtml" style="display: table-cell; white-space: nowrap; line-height: 1.5; max-width: 91px; text-align: center;"><span class="nodeLabel markdown-node-label" style=""><p>+type</p></span></div></foreignObject></g><g class="label" style="" transform="translate(0,45)"><foreignObject width="78.390625" height="30"><div xmlns="http://www.w3.org/1999/xhtml" style="display: table-cell; white-space: nowrap; line-height: 1.5; max-width: 111px; text-align: center;"><span class="nodeLabel markdown-node-label" style=""><p>+method</p></span></div></foreignObject></g><g class="label" style="" transform="translate(0,75)"><foreignObject width="91.75" height="30"><div xmlns="http://www.w3.org/1999/xhtml" style="display: table-cell; white-space: nowrap; line-height: 1.5; max-width: 120px; text-align: center;"><span class="nodeLabel markdown-node-label" style=""><p>+evidence</p></span></div></foreignObject></g></g><g class="methods-group text" transform="translate(-67, 111)"/><g class="divider" style=""><path d="M-79 -57 C-30.242142236246877 -56.999691405963524, 18.515715527506245 -56.99938281192704, 79 -56.999 M-79 -57 C-26.82927007789865 -56.99966980550682, 25.341459844202703 -56.999339611013646, 79 -56.999" stroke="#1a1a1c" stroke-width="1.3" fill="none" stroke-dasharray="0 0" style=""/></g><g class="divider" style=""><path d="M-79 87 C-20.531396095045373 87.00037005445509, 37.93720780990925 87.0007401089102, 79 87.001 M-79 87 C-39.31728928222687 87.00025115639694, 0.36542143554626705 87.0005023127939, 79 87.001" stroke="#1a1a1c" stroke-width="1.3" fill="none" stroke-dasharray="0 0" style=""/></g></g><g class="node default" id="my-svg-classId-EvidenceEntry-5" data-look="classic" transform="translate(484.763671875, 1175)"><g class="basic label-container outer-path"><path d="M-120.41796875 -111 L120.41796875 -111 L120.41796875 111 L-120.41796875 111" stroke="none" stroke-width="0" fill="#FFF8F2" style=""/><path d="M-120.41796875 -111 C-43.59707016781408 -111, 33.22382841437184 -111, 120.41796875 -111 M-120.41796875 -111 C-58.822373929009856 -111, 2.773220891980287 -111, 120.41796875 -111 M120.41796875 -111 C120.41796875 -60.309490501240155, 120.41796875 -9.61898100248031, 120.41796875 111 M120.41796875 -111 C120.41796875 -42.944177836877046, 120.41796875 25.11164432624591, 120.41796875 111 M120.41796875 111 C50.664967763668514 111, -19.088033222662972 111, -120.41796875 111 M120.41796875 111 C68.19691287673173 111, 15.97585700346346 111, -120.41796875 111 M-120.41796875 111 C-120.41796875 22.2717648708595, -120.41796875 -66.456470258281, -120.41796875 -111 M-120.41796875 111 C-120.41796875 42.13501792526296, -120.41796875 -26.729964149474085, -120.41796875 -111" stroke="#1a1a1c" stroke-width="1.3" fill="none" stroke-dasharray="0 0" style=""/></g><g class="annotation-group text" transform="translate(0, -87)"/><g class="label-group text" transform="translate(-69.4765625, -87)"><g class="label" style="font-weight: bolder" transform="translate(0,-15)"><foreignObject width="138.953125" height="30"><div xmlns="http://www.w3.org/1999/xhtml" style="display: table-cell; white-space: nowrap; line-height: 1.5; max-width: 145px; text-align: center;"><span class="nodeLabel markdown-node-label" style=""><p>EvidenceEntry</p></span></div></foreignObject></g></g><g class="members-group text" transform="translate(-108.41796875, -33)"><g class="label" style="" transform="translate(0,-15)"><foreignObject width="43.9375" height="30"><div xmlns="http://www.w3.org/1999/xhtml" style="display: table-cell; white-space: nowrap; line-height: 1.5; max-width: 85px; text-align: center;"><span class="nodeLabel markdown-node-label" style=""><p>+seq</p></span></div></foreignObject></g><g class="label" style="" transform="translate(0,15)"><foreignObject width="147.359375" height="30"><div xmlns="http://www.w3.org/1999/xhtml" style="display: table-cell; white-space: nowrap; line-height: 1.5; max-width: 159px; text-align: center;"><span class="nodeLabel markdown-node-label" style=""><p>+envelope_hash</p></span></div></foreignObject></g><g class="label" style="" transform="translate(0,45)"><foreignObject width="105.078125" height="30"><div xmlns="http://www.w3.org/1999/xhtml" style="display: table-cell; white-space: nowrap; line-height: 1.5; max-width: 129px; text-align: center;"><span class="nodeLabel markdown-node-label" style=""><p>+prev_hash</p></span></div></foreignObject></g><g class="label" style="" transform="translate(0,75)"><foreignObject width="37.25" height="30"><div xmlns="http://www.w3.org/1999/xhtml" style="display: table-cell; white-space: nowrap; line-height: 1.5; max-width: 82px; text-align: center;"><span class="nodeLabel markdown-node-label" style=""><p>+sig</p></span></div></foreignObject></g></g><g class="methods-group text" transform="translate(-108.41796875, 111)"/><g class="divider" style=""><path d="M-120.41796875 -57 C-67.55673068339584 -56.99978050934335, -14.695492616791682 -56.999561018686705, 120.41796875 -56.999 M-120.41796875 -57 C-56.499288432777334 -56.999734596584794, 7.419391884445332 -56.99946919316959, 120.41796875 -56.999" stroke="#1a1a1c" stroke-width="1.3" fill="none" stroke-dasharray="0 0" style=""/></g><g class="divider" style=""><path d="M-120.41796875 87 C-42.51095877634732 87.00032348581686, 35.396051197305354 87.00064697163374, 120.41796875 87.001 M-120.41796875 87 C-29.81964784172 87.0003761827319, 60.77867306656 87.0007523654638, 120.41796875 87.001" stroke="#1a1a1c" stroke-width="1.3" fill="none" stroke-dasharray="0 0" style=""/></g></g></g></g></g><defs><filter id="my-svg-drop-shadow" height="130%" width="130%"><feDropShadow dx="4" dy="4" stdDeviation="0" flood-opacity="0.06" flood-color="#000000"/></filter></defs><defs><filter id="my-svg-drop-shadow-small" height="150%" width="150%"><feDropShadow dx="2" dy="2" stdDeviation="0" flood-opacity="0.06" flood-color="#000000"/></filter></defs><linearGradient id="my-svg-gradient" gradientUnits="objectBoundingBox" x1="0%" y1="0%" x2="100%" y2="0%"><stop offset="0%" stop-color="#1a1a1c" stop-opacity="1"/><stop offset="100%" stop-color="hsl(-92.3076923077, 60%, 87.4509803922%)" stop-opacity="1"/></linearGradient></svg>